<svg width="105" height="87" viewBox="0 0 105 87" fill="none" xmlns="http://www.w3.org/2000/svg">
<path d="M90 40.6567C90 61.355 54.545 87 34 87C13.455 87 8 64.1759 8 43.4776C8 20.9104 25.855 6 46.4 6C66.945 6 90 19.9584 90 40.6567Z" fill="url(#paint0_linear_348_1459)"/>
<path d="M104.928 2.21094C102.981 3.46875 100.945 4.5319 98.8184 5.40039C96.722 6.23893 94.5508 6.91276 92.3047 7.42188C90.0586 7.93099 87.7526 8.29036 85.3867 8.5C83.0208 8.70964 80.625 8.81445 78.1992 8.81445C75.1445 8.81445 71.9251 8.66471 68.541 8.36523C65.1569 8.03581 61.7878 7.69141 58.4336 7.33203C55.1094 6.97266 51.89 6.64323 48.7754 6.34375C45.6608 6.01432 42.8457 5.84961 40.3301 5.84961C36.6465 5.84961 33.2923 6.32878 30.2676 7.28711C27.2428 8.21549 24.6523 9.54818 22.4961 11.2852C20.3398 12.9922 18.6628 15.0586 17.4648 17.4844C16.2969 19.8802 15.7129 22.5605 15.7129 25.5254C15.7129 27.5918 16.0573 29.4635 16.7461 31.1406C17.4648 32.7878 18.4681 34.1803 19.7559 35.3184C21.0736 36.4564 22.6458 37.3398 24.4727 37.9688C26.2995 38.5677 28.321 38.8672 30.5371 38.8672C32.4538 38.8672 34.4303 38.6426 36.4668 38.1934C38.5033 37.7142 40.5098 37.0104 42.4863 36.082L43.4297 37.9238C41.4232 39.0918 39.1022 40.0202 36.4668 40.709C33.8613 41.3978 31.2259 41.7422 28.5605 41.7422C26.2546 41.7422 24.0384 41.4128 21.9121 40.7539C19.7858 40.0951 17.8841 39.1068 16.207 37.7891C14.5599 36.4414 13.2422 34.7643 12.2539 32.7578C11.2656 30.7214 10.7715 28.3405 10.7715 25.6152C10.7715 22.9199 11.1758 20.5091 11.9844 18.3828C12.793 16.2266 13.901 14.3249 15.3086 12.6777C16.7161 11.0007 18.3633 9.57812 20.25 8.41016C22.1367 7.24219 24.1582 6.28385 26.3145 5.53516C28.5007 4.75651 30.7617 4.20247 33.0977 3.87305C35.4336 3.51367 37.7546 3.33398 40.0605 3.33398C42.8158 3.33398 45.7656 3.4987 48.9102 3.82812C52.0846 4.15755 55.319 4.51693 58.6133 4.90625C61.9076 5.26562 65.2168 5.61003 68.541 5.93945C71.8652 6.26888 75.0846 6.43359 78.1992 6.43359C80.5352 6.43359 82.8411 6.34375 85.1172 6.16406C87.3932 5.95443 89.5944 5.61003 91.7207 5.13086C93.877 4.65169 95.9434 4.02279 97.9199 3.24414C99.9264 2.43555 101.843 1.43229 103.67 0.234375L104.928 2.21094ZM73.3926 12.7676C70.847 15.8223 68.5859 19.0267 66.6094 22.3809C64.6628 25.7051 62.8509 29.0443 61.1738 32.3984C59.5267 35.7526 57.9544 39.0768 56.457 42.3711C54.9596 45.6354 53.4023 48.75 51.7852 51.7148C50.168 54.6497 48.431 57.375 46.5742 59.8906C44.7474 62.3763 42.651 64.5326 40.2852 66.3594C37.9492 68.1862 35.2689 69.6087 32.2441 70.627C29.2493 71.6751 25.8053 72.1992 21.9121 72.1992C18.4681 72.1992 15.4134 71.75 12.748 70.8516C10.1126 69.9831 7.89648 68.7702 6.09961 67.2129C4.30273 65.6855 2.9401 63.8887 2.01172 61.8223C1.08333 59.7259 0.619141 57.4648 0.619141 55.0391C0.619141 54.1107 0.679036 53.2272 0.798828 52.3887C0.91862 51.5501 1.09831 50.7865 1.33789 50.0977L3.58398 50.7715C3.4043 51.3704 3.25456 52.0443 3.13477 52.793C3.01497 53.5117 2.95508 54.2604 2.95508 55.0391C2.95508 57.5247 3.47917 59.696 4.52734 61.5527C5.57552 63.4095 6.95312 64.9518 8.66016 66.1797C10.3672 67.4076 12.3138 68.321 14.5 68.9199C16.6862 69.5488 18.9173 69.8633 21.1934 69.8633C24.4876 69.8633 27.4076 69.2943 29.9531 68.1562C32.5286 67.0182 34.8646 65.4759 36.9609 63.5293C39.0573 61.5527 40.959 59.2467 42.666 56.6113C44.403 53.9759 46.0801 51.1458 47.6973 48.1211C49.3145 45.0964 50.9316 41.9518 52.5488 38.6875C54.196 35.4232 55.9629 32.1888 57.8496 28.9844C59.7663 25.7799 61.8626 22.6953 64.1387 19.7305C66.4147 16.7357 69.0202 14.0104 71.9551 11.5547L73.3926 12.7676Z" fill="black"/>
<defs>
<linearGradient id="paint0_linear_348_1459" x1="26.4" y1="14.8657" x2="87.7984" y2="47.1299" gradientUnits="userSpaceOnUse">
<stop stop-color="#F5DBDB"/>
<stop offset="0.35" stop-color="#EFC8C7"/>
<stop offset="0.635" stop-color="#F1BCBB"/>
<stop offset="1" stop-color="#FCF3F3"/>
</linearGradient>
</defs>
</svg>
