<svg width="423" height="279" viewBox="0 0 423 279" fill="none" xmlns="http://www.w3.org/2000/svg">
<path d="M224.962 51.0126C226.298 51.0126 226.966 53.5023 226.966 58.4817C226.966 63.3397 225.752 69.1085 223.323 75.7881C221.015 82.3464 217.857 88.6617 213.85 94.7341C209.842 100.685 205.166 106.272 199.822 111.494C194.479 116.595 188.831 121.028 182.88 124.793C170.007 132.808 158.348 136.816 147.903 136.816C137.458 136.816 129.625 134.266 124.403 129.165C119.302 124.064 116.752 117.87 116.752 110.583C116.752 103.175 118.695 95.9486 122.581 88.9046C126.589 81.8606 132.115 74.938 139.159 68.1369C155.069 53.1987 174.197 41.9647 196.543 34.4349C213.667 28.7268 235.893 25.8728 263.218 25.8728C280.586 25.8728 297.346 27.6338 313.498 31.1558C327.1 33.5848 338.577 34.7993 347.929 34.7993C357.28 34.7993 365.296 33.9491 371.976 32.2488C378.777 30.4271 385.092 28.0589 390.922 25.1441C403.309 18.8288 412.175 11.4811 417.519 3.10118C418.733 1.03656 419.948 0.00424194 421.162 0.00424194C422.377 0.00424194 422.984 0.732932 422.984 2.19032C422.984 3.6477 420.798 6.98754 416.426 12.2098C412.175 17.4321 406.467 22.3508 399.302 26.9658C392.258 31.5809 384.363 35.5887 375.619 38.9892C357.159 46.0332 337.849 49.5553 317.688 49.5553C305.058 49.5553 291.273 47.9764 276.335 44.8188C253.138 40.0823 236.135 37.714 225.327 37.714C214.639 37.714 205.47 38.8071 197.818 40.9931C190.167 43.0578 182.698 45.9118 175.411 49.5553C168.124 53.0773 161.202 57.2065 154.643 61.943C148.207 66.6795 142.559 71.7196 137.701 77.0634C127.135 88.7224 121.852 99.6528 121.852 109.854C121.852 119.327 126.103 125.825 134.604 129.347C137.398 130.44 140.92 130.987 145.17 130.987C149.421 130.987 154.218 129.711 159.562 127.161C165.027 124.489 170.493 121.028 175.958 116.777C181.423 112.405 186.767 107.547 191.989 102.203C197.211 96.738 201.948 91.2121 206.198 85.6255C215.428 73.3592 220.954 63.3397 222.776 55.567C223.505 52.5307 224.234 51.0126 224.962 51.0126ZM27.1225 241.019C27.1225 243.448 26.1509 245.573 24.2077 247.395C22.1431 249.217 19.4712 250.128 16.1921 250.128C12.913 250.128 10.2411 249.52 8.1765 248.306V249.399C8.1765 261.058 16.4957 268.527 33.1342 271.806C38.235 272.778 44.4896 273.264 51.898 273.264C59.4278 273.264 68.0506 271.624 77.7665 268.345C87.4824 264.944 97.1376 259.904 106.732 253.225C127.135 239.015 145.778 218.612 162.659 192.014C168.003 183.634 174.075 175.133 180.876 166.51L203.284 139.002C222.23 117.141 241.176 98.2561 260.122 82.3464C276.517 68.6227 286.962 61.7608 291.455 61.7608C293.156 61.7608 294.006 62.3074 294.006 63.4004C294.006 64.6149 292.305 66.3152 288.905 68.5012C285.504 70.6873 282.104 72.9948 278.703 75.4238C275.424 77.8528 272.266 80.4639 269.23 83.2572C266.315 86.0505 263.401 89.2082 260.486 92.7302C257.571 96.1308 254.353 100.26 250.831 105.118C247.309 109.976 243.362 115.745 238.99 122.424L223.687 145.743C166.363 234.157 107.825 278.364 48.0724 278.364C35.0774 278.364 24.147 275.692 15.2812 270.349C5.6868 264.519 0.889587 257.05 0.889587 247.941C0.889587 243.084 2.28625 239.622 5.07956 237.558C9.20881 234.279 12.8523 232.639 16.0099 232.639C23.4183 232.639 27.1225 235.432 27.1225 241.019Z" fill="#637560"/>
</svg>
