<svg width="65" height="59" viewBox="0 0 65 59" fill="none" xmlns="http://www.w3.org/2000/svg">
<path d="M55.057 58.5041C52.089 58.5041 49.765 57.6921 48.085 56.0681C46.405 54.4441 45.565 52.4001 45.565 49.9361C45.565 47.4161 46.433 45.3721 48.169 43.8041C49.905 42.2361 52.201 41.4521 55.057 41.4521C57.857 41.4521 60.125 42.2921 61.861 43.9721C63.597 45.5961 64.465 47.5841 64.465 49.9361C64.465 52.5681 63.653 54.6681 62.029 56.2361C60.405 57.7481 58.081 58.5041 55.057 58.5041Z" fill="black"/>
<path d="M12.448 12.976H0.436005V0.208008H44.032V12.976H32.02V58H12.448V12.976Z" fill="black"/>
</svg>
