<svg width="218" height="55" viewBox="0 0 218 55" fill="none" xmlns="http://www.w3.org/2000/svg">
<path d="M107.173 39.291C107.375 39.291 107.477 39.4367 107.477 39.728V40.754C107.477 40.8173 107.502 40.849 107.553 40.849C107.603 40.849 107.66 40.811 107.724 40.735C108.015 40.3677 108.414 40.0383 108.921 39.747C109.44 39.443 109.896 39.291 110.289 39.291C110.694 39.291 111.004 39.3353 111.22 39.424C111.435 39.5127 111.543 39.614 111.543 39.728V41.191C111.543 41.381 111.454 41.476 111.277 41.476C111.175 41.476 111.042 41.381 110.878 41.191C110.523 40.7603 110.061 40.545 109.491 40.545C108.933 40.545 108.458 40.811 108.066 41.343C107.673 41.875 107.477 42.6413 107.477 43.642V47.746C107.477 48.202 107.812 48.4553 108.484 48.506L109.263 48.563C109.415 48.5757 109.491 48.6643 109.491 48.829C109.491 48.9937 109.396 49.076 109.206 49.076L106.698 49L104.646 49.076C104.456 49.076 104.361 48.9937 104.361 48.829C104.361 48.6643 104.437 48.5757 104.589 48.563L105.121 48.525C105.374 48.4997 105.583 48.4237 105.748 48.297C105.912 48.1577 105.995 47.974 105.995 47.746V40.792C105.995 40.5387 105.938 40.3677 105.824 40.279C105.722 40.1777 105.551 40.127 105.311 40.127H104.665C104.5 40.127 104.418 40.0447 104.418 39.88C104.418 39.7153 104.5 39.6203 104.665 39.595L107.135 39.291C107.147 39.291 107.16 39.291 107.173 39.291Z" fill="black"/>
<path d="M103.126 42.996C103.126 43.756 102.784 44.136 102.1 44.136H96.6276C96.4756 44.136 96.3996 44.2437 96.3996 44.459C96.4249 45.6243 96.7606 46.549 97.4066 47.233C98.0652 47.9044 98.8949 48.24 99.8956 48.24C100.909 48.24 101.656 48.0437 102.138 47.651C102.302 47.5243 102.454 47.5307 102.594 47.67C102.733 47.8093 102.714 47.9677 102.537 48.145C101.827 48.8543 100.852 49.209 99.6106 49.209C98.0526 49.209 96.8302 48.7657 95.9436 47.879C95.0696 46.9797 94.6326 45.732 94.6326 44.136C94.6326 42.844 95.0696 41.7167 95.9436 40.754C96.8176 39.7787 97.8562 39.291 99.0596 39.291C100.276 39.291 101.257 39.6457 102.005 40.355C102.752 41.0517 103.126 41.932 103.126 42.996ZM101.416 42.749C101.416 41.989 101.207 41.3493 100.789 40.83C100.383 40.298 99.8069 40.032 99.0596 40.032C98.3249 40.032 97.6979 40.336 97.1786 40.944C96.6592 41.552 96.3996 42.2487 96.3996 43.034C96.3996 43.2367 96.4819 43.338 96.6466 43.338H100.827C101.219 43.338 101.416 43.1417 101.416 42.749Z" fill="black"/>
<path d="M84.7214 39.291C84.9241 39.291 85.0254 39.4367 85.0254 39.728V40.697C85.0254 40.7603 85.0444 40.792 85.0824 40.792C85.1331 40.792 85.1964 40.754 85.2724 40.678C86.0071 39.7533 86.9634 39.291 88.1414 39.291C89.3321 39.291 90.2441 39.6077 90.8774 40.241C91.5108 40.8617 91.8274 41.761 91.8274 42.939V47.746C91.8274 47.974 91.9161 48.1577 92.0934 48.297C92.2834 48.4237 92.5051 48.4997 92.7584 48.525L93.2714 48.563C93.4234 48.5757 93.4994 48.6643 93.4994 48.829C93.4994 48.9937 93.4044 49.076 93.2144 49.076L91.1814 49L89.4524 49.076C89.2624 49.076 89.1674 48.9937 89.1674 48.829C89.1674 48.6643 89.2434 48.5757 89.3954 48.563L89.6424 48.525C90.1111 48.449 90.3454 48.1893 90.3454 47.746V42.673C90.3454 41.8877 90.1238 41.2797 89.6804 40.849C89.2371 40.4183 88.6228 40.203 87.8374 40.203C87.0648 40.203 86.3998 40.526 85.8424 41.172C85.2978 41.8053 85.0254 42.4324 85.0254 43.053V47.746C85.0254 48.202 85.2788 48.4617 85.7854 48.525L86.1084 48.563C86.2604 48.5757 86.3364 48.6643 86.3364 48.829C86.3364 48.9937 86.2414 49.076 86.0514 49.076L84.2464 49L82.1944 49.076C82.0044 49.076 81.9094 48.9937 81.9094 48.829C81.9094 48.6643 81.9854 48.5757 82.1374 48.563L82.6694 48.525C82.9228 48.4997 83.1318 48.4237 83.2964 48.297C83.4611 48.1577 83.5434 47.974 83.5434 47.746V40.792C83.5434 40.5387 83.4864 40.3677 83.3724 40.279C83.2711 40.1777 83.1001 40.127 82.8594 40.127H82.2134C82.0488 40.127 81.9664 40.0447 81.9664 39.88C81.9664 39.7153 82.0488 39.6203 82.2134 39.595L84.6834 39.291C84.6961 39.291 84.7088 39.291 84.7214 39.291Z" fill="black"/>
<path d="M80.8559 40.621H79.2789C79.2029 40.621 79.1585 40.64 79.1459 40.678C79.1332 40.716 79.1522 40.7603 79.2029 40.811C79.5955 41.3177 79.7919 41.9573 79.7919 42.73C79.7919 43.7687 79.4245 44.5983 78.6899 45.219C77.9679 45.8397 77.0622 46.15 75.9729 46.15C75.3522 46.15 74.8962 46.1057 74.6049 46.017C74.3262 45.9157 74.1109 45.9093 73.9589 45.998C73.5029 46.2513 73.2749 46.6187 73.2749 47.1C73.2749 47.4167 73.4079 47.6764 73.6739 47.879C73.9399 48.069 74.2249 48.164 74.5289 48.164H77.2839C78.5252 48.164 79.4562 48.4237 80.0769 48.943C80.7102 49.4623 81.0269 50.1717 81.0269 51.071C81.0269 52.1857 80.5709 53.0533 79.6589 53.674C78.7595 54.3073 77.6449 54.624 76.3149 54.624C74.9849 54.624 73.9082 54.3707 73.0849 53.864C72.2615 53.3573 71.8499 52.6417 71.8499 51.717C71.8499 51.0963 72.0462 50.5834 72.4389 50.178C72.8315 49.7727 73.2559 49.494 73.7119 49.342C73.3445 49.2533 72.9899 49.038 72.6479 48.696C72.3059 48.3413 72.1349 47.917 72.1349 47.423C72.1349 46.625 72.5402 46.0107 73.3509 45.58C73.3889 45.5547 73.4079 45.523 73.4079 45.485C73.4079 45.447 73.3889 45.4027 73.3509 45.352C72.5655 44.6933 72.1729 43.832 72.1729 42.768C72.1729 41.704 72.5275 40.8617 73.2369 40.241C73.9589 39.6077 74.8519 39.291 75.9159 39.291C76.3212 39.291 76.7709 39.3543 77.2649 39.481C77.7715 39.6077 78.1135 39.671 78.2909 39.671H81.0269C81.1789 39.671 81.2422 39.747 81.2169 39.899L81.1219 40.393C81.0965 40.545 81.0079 40.621 80.8559 40.621ZM75.9729 45.371C76.7075 45.371 77.2712 45.1557 77.6639 44.725C78.0565 44.2943 78.2529 43.699 78.2529 42.939C78.2529 42.179 78.0439 41.514 77.6259 40.944C77.2205 40.3613 76.6569 40.07 75.9349 40.07C75.2129 40.07 74.6619 40.2917 74.2819 40.735C73.9019 41.1657 73.7119 41.761 73.7119 42.521C73.7119 43.281 73.9019 43.946 74.2819 44.516C74.6745 45.086 75.2382 45.371 75.9729 45.371ZM76.3149 53.921C77.2649 53.921 78.0502 53.693 78.6709 53.237C79.3042 52.781 79.6209 52.2237 79.6209 51.565C79.6209 50.9063 79.4182 50.4123 79.0129 50.083C78.6075 49.7537 78.0312 49.589 77.2839 49.589H75.3839C74.6872 49.589 74.1489 49.779 73.7689 50.159C73.3889 50.539 73.1989 51.052 73.1989 51.698C73.1989 52.344 73.4775 52.876 74.0349 53.294C74.6049 53.712 75.3649 53.921 76.3149 53.921Z" fill="black"/>
<path d="M69.9102 48.563C70.0622 48.5757 70.1382 48.6644 70.1382 48.829C70.1382 48.9937 70.0432 49.076 69.8532 49.076L68.0482 49L65.9962 49.076C65.8062 49.076 65.7112 48.9937 65.7112 48.829C65.7112 48.6644 65.7872 48.5757 65.9392 48.563L66.4712 48.525C66.7245 48.4997 66.9335 48.4237 67.0982 48.297C67.2628 48.1577 67.3452 47.974 67.3452 47.746V40.792C67.3452 40.5387 67.2882 40.3677 67.1742 40.279C67.0729 40.1777 66.9019 40.127 66.6612 40.127H66.0152C65.8505 40.127 65.7682 40.0447 65.7682 39.88C65.7682 39.7154 65.8505 39.6204 66.0152 39.595L68.4852 39.291C68.7132 39.2657 68.8272 39.4114 68.8272 39.728V47.746C68.8272 48.202 69.0805 48.4617 69.5872 48.525L69.9102 48.563ZM67.2692 36.422C67.1045 36.2574 67.0222 36.0484 67.0222 35.795C67.0222 35.5417 67.1045 35.3327 67.2692 35.168C67.4465 35.0034 67.6619 34.921 67.9152 34.921C68.1685 34.921 68.3839 35.0034 68.5612 35.168C68.7385 35.3327 68.8272 35.5417 68.8272 35.795C68.8272 36.0484 68.7385 36.2574 68.5612 36.422C68.3839 36.5867 68.1685 36.669 67.9152 36.669C67.6619 36.669 67.4465 36.5867 67.2692 36.422Z" fill="black"/>
<path d="M64.4689 46.549C64.4689 47.347 64.146 47.993 63.5 48.487C62.8666 48.9683 62.0876 49.209 61.1629 49.209C60.2509 49.209 59.4909 49.1014 58.8829 48.886C58.2749 48.6707 57.9709 48.43 57.9709 48.164V46.511C57.9709 46.283 58.0533 46.169 58.2179 46.169C58.3953 46.169 58.5156 46.283 58.5789 46.511C58.9716 47.8157 59.795 48.468 61.049 48.468C61.619 48.468 62.0876 48.3287 62.4549 48.05C62.8223 47.7587 63.006 47.3977 63.006 46.967C63.006 46.5363 62.835 46.169 62.493 45.865C62.151 45.5484 61.7329 45.276 61.2389 45.048C60.7576 44.82 60.2699 44.5793 59.7759 44.326C59.2946 44.0727 58.883 43.7497 58.541 43.357C58.199 42.9517 58.028 42.4893 58.028 41.97C58.028 41.1973 58.3256 40.5577 58.9209 40.051C59.5163 39.5443 60.3079 39.291 61.2959 39.291C61.9546 39.291 62.5563 39.405 63.1009 39.633C63.6456 39.8483 63.9179 40.0827 63.9179 40.336V41.799C63.9179 42.027 63.8293 42.141 63.652 42.141C63.4746 42.141 63.3606 42.027 63.3099 41.799C62.9679 40.621 62.2523 40.032 61.1629 40.032C60.6689 40.032 60.251 40.1587 59.909 40.412C59.567 40.6527 59.396 40.982 59.396 41.4C59.396 41.8053 59.567 42.1663 59.909 42.483C60.2636 42.7997 60.6879 43.0783 61.1819 43.319C61.6886 43.547 62.1889 43.794 62.6829 44.06C63.1769 44.3134 63.595 44.6553 63.937 45.086C64.2916 45.504 64.4689 45.9917 64.4689 46.549Z" fill="black"/>
<path d="M56.0709 42.996C56.0709 43.756 55.7289 44.136 55.0449 44.136H49.5729C49.4209 44.136 49.3449 44.2437 49.3449 44.459C49.3702 45.6243 49.7059 46.549 50.3519 47.233C51.0105 47.9044 51.8402 48.24 52.8409 48.24C53.8542 48.24 54.6015 48.0437 55.0829 47.651C55.2475 47.5243 55.3995 47.5307 55.5389 47.67C55.6782 47.8093 55.6592 47.9677 55.4819 48.145C54.7725 48.8543 53.7972 49.209 52.5559 49.209C50.9979 49.209 49.7755 48.7657 48.8889 47.879C48.0149 46.9797 47.5779 45.732 47.5779 44.136C47.5779 42.844 48.0149 41.7167 48.8889 40.754C49.7629 39.7787 50.8015 39.291 52.0049 39.291C53.2209 39.291 54.2025 39.6457 54.9499 40.355C55.6972 41.0517 56.0709 41.932 56.0709 42.996ZM54.3609 42.749C54.3609 41.989 54.1519 41.3493 53.7339 40.83C53.3285 40.298 52.7522 40.032 52.0049 40.032C51.2702 40.032 50.6432 40.336 50.1239 40.944C49.6045 41.552 49.3449 42.2487 49.3449 43.034C49.3449 43.2367 49.4272 43.338 49.5919 43.338H53.7719C54.1645 43.338 54.3609 43.1417 54.3609 42.749Z" fill="black"/>
<path d="M39.024 35.7C41.0507 35.7 42.6657 36.289 43.869 37.467C45.0723 38.6324 45.674 40.184 45.674 42.122C45.674 44.06 45.047 45.694 43.793 47.024C42.5517 48.3414 40.962 49 39.024 49H35.756L33.381 49.095C33.2037 49.095 33.115 49.0127 33.115 48.848C33.115 48.6707 33.1847 48.582 33.324 48.582L33.875 48.544C34.1283 48.5187 34.3373 48.4427 34.502 48.316C34.6667 48.1767 34.749 47.993 34.749 47.765V36.954C34.749 36.498 34.4577 36.2447 33.875 36.194L33.324 36.137C33.1847 36.1117 33.115 36.0294 33.115 35.89C33.115 35.7127 33.2037 35.624 33.381 35.624L35.756 35.7H39.024ZM42.767 38.55C42.387 37.942 41.874 37.4607 41.228 37.106C40.582 36.7514 39.841 36.574 39.005 36.574H37.295C37.0163 36.574 36.7883 36.65 36.611 36.802C36.4463 36.954 36.364 37.1757 36.364 37.467V47.252C36.364 47.518 36.4463 47.7334 36.611 47.898C36.7883 48.05 37.0163 48.126 37.295 48.126H39.1C40.5567 48.126 41.722 47.6257 42.596 46.625C43.47 45.6244 43.907 44.326 43.907 42.73C43.907 41.134 43.527 39.7407 42.767 38.55Z" fill="black"/>
<path d="M18.8564 48.5251C19.0084 48.5377 19.0844 48.6264 19.0844 48.7911C19.0844 48.9557 18.9894 49.0381 18.7994 49.0381L17.3554 49.0001L15.3604 49.0571C15.1831 49.0571 15.0944 48.9811 15.0944 48.8291C15.0944 48.6771 15.1641 48.5884 15.3034 48.5631L15.8734 48.5061C16.2534 48.4681 16.6144 48.2147 16.9564 47.7461L20.5854 42.5021L16.9374 36.9541C16.6334 36.4854 16.2661 36.2321 15.8354 36.1941L15.2844 36.1371C15.1451 36.1117 15.0754 36.0231 15.0754 35.8711C15.0754 35.7191 15.1641 35.6431 15.3414 35.6431L17.5644 35.7001L19.5214 35.6621C19.7114 35.6621 19.8064 35.7444 19.8064 35.9091C19.8064 36.0737 19.7304 36.1624 19.5784 36.1751L19.2364 36.2131C19.0211 36.2384 18.8754 36.3334 18.7994 36.4981C18.7234 36.6501 18.7361 36.8021 18.8374 36.9541L21.5544 41.1151L24.4424 36.9541C24.5564 36.8147 24.5754 36.6627 24.4994 36.4981C24.4234 36.3334 24.2714 36.2384 24.0434 36.2131L23.6824 36.1751C23.5304 36.1624 23.4544 36.0737 23.4544 35.9091C23.4544 35.7444 23.5494 35.6621 23.7394 35.6621L25.1834 35.7001L27.1784 35.6431C27.3558 35.6431 27.4444 35.7191 27.4444 35.8711C27.4444 36.0231 27.3748 36.1117 27.2354 36.1371L26.6654 36.1941C26.2854 36.2321 25.9244 36.4854 25.5824 36.9541L22.1054 41.9511L25.9244 47.7461C26.2538 48.2147 26.6274 48.4681 27.0454 48.5061L27.5774 48.5631C27.7168 48.5884 27.7864 48.6771 27.7864 48.8291C27.7864 48.9811 27.6978 49.0571 27.5204 49.0571L25.3164 49.0001L23.3404 49.0381C23.1504 49.0381 23.0554 48.9557 23.0554 48.7911C23.0554 48.6264 23.1314 48.5377 23.2834 48.5251L23.6444 48.4871C23.8598 48.4617 24.0054 48.3731 24.0814 48.2211C24.1574 48.0564 24.1448 47.8981 24.0434 47.7461L21.1364 43.3381L18.0964 47.7461C17.9824 47.8981 17.9634 48.0564 18.0394 48.2211C18.1154 48.3731 18.2674 48.4617 18.4954 48.4871L18.8564 48.5251Z" fill="black"/>
<path d="M2.20407 44.117V36.954C2.20407 36.498 1.91274 36.2447 1.33007 36.194L0.779068 36.137C0.639735 36.1117 0.570068 36.0294 0.570068 35.89C0.570068 35.7127 0.658735 35.624 0.836068 35.624L2.98307 35.7L4.86407 35.624C5.05407 35.624 5.14907 35.7 5.14907 35.852C5.14907 36.0294 5.06674 36.1244 4.90207 36.137L4.57907 36.194C4.0724 36.2827 3.81907 36.536 3.81907 36.954V44.136C3.81907 45.314 4.17373 46.2324 4.88307 46.891C5.5924 47.5497 6.5234 47.879 7.67607 47.879C8.8414 47.879 9.77874 47.5434 10.4881 46.872C11.2101 46.2007 11.5711 45.2887 11.5711 44.136V36.954C11.5711 36.536 11.3177 36.2827 10.8111 36.194L10.4881 36.137C10.3234 36.1117 10.2411 36.023 10.2411 35.871C10.2411 35.719 10.3361 35.643 10.5261 35.643L12.0081 35.7L13.8511 35.643C14.0284 35.643 14.1171 35.719 14.1171 35.871C14.1171 36.023 14.0474 36.1117 13.9081 36.137L13.3571 36.194C12.7744 36.2574 12.4831 36.5107 12.4831 36.954V44.117C12.4831 45.675 12.0017 46.9164 11.0391 47.841C10.0891 48.753 8.86674 49.209 7.37207 49.209C5.8774 49.209 4.6424 48.734 3.66707 47.784C2.69174 46.834 2.20407 45.6117 2.20407 44.117Z" fill="black"/>
<path d="M194.688 19.1094C194.615 19.0365 194.578 18.8451 194.578 18.5352C194.578 18.2435 194.615 18.0977 194.688 18.0977C194.833 18.0977 195.043 18.0612 195.316 17.9883C195.59 17.8971 195.845 17.7969 196.082 17.6875C196.319 17.5781 196.447 17.487 196.465 17.4141C196.592 16.9036 196.656 16.2109 196.656 15.3359V11.5898C196.656 10.569 196.492 9.88542 196.164 9.53906C196.018 9.35677 195.818 9.22917 195.562 9.15625C195.326 9.08333 195.116 9.03776 194.934 9.01953C194.751 8.98307 194.66 8.94661 194.66 8.91016C194.66 8.27214 194.706 7.95312 194.797 7.95312C195.344 7.91667 196.009 7.80729 196.793 7.625C197.577 7.42448 198.497 7.22396 199.555 7.02344L200.102 6.88672C200.193 6.88672 200.284 6.95052 200.375 7.07812C200.484 7.1875 200.53 7.27865 200.512 7.35156L200.402 8.19922C200.402 8.29036 200.411 8.34505 200.43 8.36328C200.466 8.36328 200.53 8.31771 200.621 8.22656C201.624 7.27865 202.891 6.80469 204.422 6.80469C205.734 6.80469 206.701 7.43359 207.32 8.69141C208.451 7.45182 210.091 6.82292 212.242 6.80469C213.299 6.80469 214.156 7.2513 214.812 8.14453C215.487 9.03776 215.824 10.3958 215.824 12.2188V14.9258C215.824 16.1289 215.888 16.9583 216.016 17.4141C216.052 17.487 216.18 17.5781 216.398 17.6875C216.635 17.7969 216.882 17.8971 217.137 17.9883C217.392 18.0612 217.574 18.0977 217.684 18.0977C217.72 18.0977 217.747 18.1706 217.766 18.3164C217.784 18.4622 217.793 18.6172 217.793 18.7812C217.793 18.9453 217.775 19.0547 217.738 19.1094C217.629 19.1094 217.419 19.0911 217.109 19.0547C216.799 19.0365 216.444 19.0182 216.043 19C215.66 18.9635 215.286 18.9362 214.922 18.918C214.557 18.8997 214.266 18.8906 214.047 18.8906C213.755 18.8906 213.345 18.9089 212.816 18.9453C212.288 18.9818 211.777 19.0091 211.285 19.0273C210.811 19.0638 210.501 19.0911 210.355 19.1094C210.283 19.0365 210.246 18.8451 210.246 18.5352C210.246 18.2435 210.283 18.0977 210.355 18.0977C210.501 18.0977 210.702 18.0612 210.957 17.9883C211.23 17.8971 211.477 17.7969 211.695 17.6875C211.932 17.5781 212.06 17.487 212.078 17.4141C212.206 16.9036 212.27 16.2109 212.27 15.3359V12.875C212.27 11.6172 212.078 10.6784 211.695 10.0586C211.331 9.4388 210.738 9.12891 209.918 9.12891C209.408 9.12891 208.979 9.22005 208.633 9.40234C208.286 9.58464 208.059 9.91276 207.949 10.3867C207.949 10.5508 207.958 10.7695 207.977 11.043C207.995 11.2982 208.004 11.6901 208.004 12.2188V14.9258C208.004 16.1289 208.068 16.9583 208.195 17.4141C208.232 17.487 208.359 17.5781 208.578 17.6875C208.815 17.7969 209.061 17.8971 209.316 17.9883C209.572 18.0612 209.754 18.0977 209.863 18.0977C209.9 18.0977 209.927 18.1706 209.945 18.3164C209.964 18.4622 209.973 18.6172 209.973 18.7812C209.973 18.9453 209.954 19.0547 209.918 19.1094C209.809 19.1094 209.599 19.0911 209.289 19.0547C208.979 19.0365 208.624 19.0182 208.223 19C207.84 18.9635 207.466 18.9362 207.102 18.918C206.737 18.8997 206.445 18.8906 206.227 18.8906C205.935 18.8906 205.525 18.9089 204.996 18.9453C204.467 18.9818 203.957 19.0091 203.465 19.0273C202.991 19.0638 202.681 19.0911 202.535 19.1094C202.462 19.0365 202.426 18.8451 202.426 18.5352C202.426 18.2435 202.462 18.0977 202.535 18.0977C202.681 18.0977 202.882 18.0612 203.137 17.9883C203.41 17.8971 203.656 17.7969 203.875 17.6875C204.112 17.5781 204.24 17.487 204.258 17.4141C204.385 16.9036 204.449 16.2109 204.449 15.3359V12.875C204.449 11.526 204.258 10.569 203.875 10.0039C203.51 9.42057 202.918 9.12891 202.098 9.12891C201.533 9.12891 201.077 9.23828 200.73 9.45703C200.384 9.65755 200.211 9.94922 200.211 10.332V14.9258C200.211 16.1289 200.275 16.9583 200.402 17.4141C200.439 17.487 200.566 17.5781 200.785 17.6875C201.004 17.7969 201.241 17.8971 201.496 17.9883C201.751 18.0612 201.924 18.0977 202.016 18.0977C202.052 18.0977 202.079 18.1706 202.098 18.3164C202.116 18.4622 202.125 18.6172 202.125 18.7812C202.125 18.9453 202.107 19.0547 202.07 19.1094C201.924 19.0911 201.615 19.0638 201.141 19.0273C200.667 19.0091 200.165 18.9818 199.637 18.9453C199.126 18.9089 198.725 18.8906 198.434 18.8906C198.215 18.8906 197.914 18.8997 197.531 18.918C197.167 18.9362 196.784 18.9635 196.383 19C195.982 19.0182 195.626 19.0365 195.316 19.0547C195.007 19.0911 194.797 19.1094 194.688 19.1094Z" fill="black"/>
<path d="M185.527 19.1094C185.454 19.0365 185.418 18.8451 185.418 18.5352C185.418 18.2435 185.454 18.0977 185.527 18.0977C185.673 18.0977 185.883 18.0612 186.156 17.9883C186.43 17.8971 186.685 17.7969 186.922 17.6875C187.159 17.5781 187.286 17.487 187.305 17.4141C187.432 16.9036 187.496 16.2109 187.496 15.3359V4.48047C187.496 4.0612 187.478 3.6875 187.441 3.35938C187.423 3.03125 187.396 2.7487 187.359 2.51172C187.286 2.22005 186.812 2.07422 185.938 2.07422H185.691C185.582 2.07422 185.527 1.89193 185.527 1.52734C185.527 1.21745 185.582 1.0625 185.691 1.0625C186.749 0.971354 187.742 0.816406 188.672 0.597656C189.62 0.378906 190.294 0.205729 190.695 0.078125L190.969 -0.00390625H191.023C191.096 -0.00390625 191.169 0.0507812 191.242 0.160156C191.315 0.269531 191.361 0.369792 191.379 0.460938C191.178 1.31771 191.078 2.23828 191.078 3.22266L191.051 14.9258C191.051 16.1289 191.115 16.9583 191.242 17.4141C191.279 17.487 191.415 17.5781 191.652 17.6875C191.889 17.7969 192.135 17.8971 192.391 17.9883C192.664 18.0612 192.855 18.0977 192.965 18.0977C193.001 18.0977 193.029 18.1706 193.047 18.3164C193.065 18.4622 193.074 18.6172 193.074 18.7812C193.074 18.9453 193.056 19.0547 193.02 19.1094C192.91 19.1094 192.701 19.0911 192.391 19.0547C192.081 19.0365 191.716 19.0182 191.297 19C190.896 18.9635 190.513 18.9362 190.148 18.918C189.784 18.8997 189.492 18.8906 189.273 18.8906C189.055 18.8906 188.754 18.8997 188.371 18.918C188.007 18.9362 187.624 18.9635 187.223 19C186.822 19.0182 186.466 19.0365 186.156 19.0547C185.846 19.0911 185.637 19.1094 185.527 19.1094Z" fill="black"/>
<path d="M178.664 19.1914C177.552 19.1914 176.522 18.9089 175.574 18.3438C174.645 17.7786 173.897 17.0221 173.332 16.0742C172.785 15.1263 172.512 14.0872 172.512 12.957C172.512 11.7904 172.758 10.7422 173.25 9.8125C173.76 8.88281 174.462 8.14453 175.355 7.59766C176.249 7.05078 177.279 6.77734 178.445 6.77734C179.594 6.77734 180.569 7.05078 181.371 7.59766C182.191 8.1263 182.811 8.79167 183.23 9.59375C183.668 10.3776 183.887 11.1706 183.887 11.9727C183.887 12.3919 183.796 12.6654 183.613 12.793C183.449 12.9206 183.112 12.9844 182.602 12.9844H176.422C176.312 12.9844 176.258 13.0482 176.258 13.1758C176.258 13.832 176.376 14.4518 176.613 15.0352C176.868 15.6185 177.233 16.0924 177.707 16.457C178.199 16.8216 178.792 17.0039 179.484 17.0039C180.104 17.0039 180.678 16.9128 181.207 16.7305C181.572 16.6211 181.854 16.5208 182.055 16.4297C182.255 16.3385 182.438 16.2383 182.602 16.1289C182.784 16.0013 182.993 15.8464 183.23 15.6641C183.395 15.737 183.477 15.9102 183.477 16.1836C183.477 16.4206 183.44 16.6029 183.367 16.7305C183.258 17.0221 182.966 17.3594 182.492 17.7422C182.036 18.125 181.471 18.4622 180.797 18.7539C180.141 19.0456 179.43 19.1914 178.664 19.1914ZM176.449 11.4805H179.922C180.177 11.4805 180.305 11.3073 180.305 10.9609C180.305 10.2682 180.113 9.64844 179.73 9.10156C179.366 8.55469 178.892 8.28125 178.309 8.28125C177.78 8.28125 177.361 8.47266 177.051 8.85547C176.759 9.22005 176.549 9.63021 176.422 10.0859C176.312 10.5417 176.258 10.9154 176.258 11.207C176.258 11.3893 176.322 11.4805 176.449 11.4805Z" fill="black"/>
<path d="M156.762 19.1094C156.689 19.0365 156.652 18.8451 156.652 18.5352C156.652 18.2435 156.689 18.0977 156.762 18.0977C156.908 18.0977 157.117 18.0612 157.391 17.9883C157.664 17.8971 157.919 17.7969 158.156 17.6875C158.393 17.5781 158.521 17.487 158.539 17.4141C158.667 16.9036 158.73 16.2109 158.73 15.3359V4.48047C158.73 4.0612 158.712 3.6875 158.676 3.35938C158.658 3.03125 158.63 2.7487 158.594 2.51172C158.521 2.22005 158.047 2.07422 157.172 2.07422H156.926C156.816 2.07422 156.762 1.89193 156.762 1.52734C156.762 1.21745 156.816 1.0625 156.926 1.0625C157.983 0.971354 158.977 0.816406 159.906 0.597656C160.854 0.378906 161.529 0.205729 161.93 0.078125L162.203 -0.00390625H162.258C162.331 -0.00390625 162.404 0.0507812 162.477 0.160156C162.549 0.269531 162.595 0.369792 162.613 0.460938C162.395 1.28125 162.285 2.20182 162.285 3.22266V8.30859C162.285 8.4362 162.322 8.5 162.395 8.5C162.413 8.5 162.458 8.46354 162.531 8.39062C162.932 7.9349 163.497 7.5612 164.227 7.26953C164.956 6.95964 165.712 6.80469 166.496 6.80469C167.553 6.80469 168.41 7.2513 169.066 8.14453C169.741 9.03776 170.078 10.3958 170.078 12.2188V14.9258C170.078 16.1289 170.142 16.9583 170.27 17.4141C170.306 17.487 170.443 17.5781 170.68 17.6875C170.917 17.7969 171.163 17.8971 171.418 17.9883C171.691 18.0612 171.883 18.0977 171.992 18.0977C172.029 18.0977 172.056 18.1706 172.074 18.3164C172.092 18.4622 172.102 18.6172 172.102 18.7812C172.102 18.9453 172.083 19.0547 172.047 19.1094C171.938 19.1094 171.728 19.0911 171.418 19.0547C171.108 19.0365 170.743 19.0182 170.324 19C169.923 18.9635 169.54 18.9362 169.176 18.918C168.811 18.8997 168.52 18.8906 168.301 18.8906C168.009 18.8906 167.599 18.9089 167.07 18.9453C166.56 18.9818 166.068 19.0091 165.594 19.0273C165.12 19.0638 164.81 19.0911 164.664 19.1094C164.591 19.0365 164.555 18.8451 164.555 18.5352C164.555 18.2435 164.591 18.0977 164.664 18.0977C164.81 18.0977 165.001 18.0612 165.238 17.9883C165.493 17.8971 165.73 17.7969 165.949 17.6875C166.186 17.5781 166.314 17.487 166.332 17.4141C166.46 16.9036 166.523 16.2109 166.523 15.3359V12.875C166.523 11.526 166.341 10.569 165.977 10.0039C165.612 9.42057 165.02 9.12891 164.199 9.12891C162.923 9.12891 162.285 9.52995 162.285 10.332V14.9258C162.285 16.1289 162.349 16.9583 162.477 17.4141C162.513 17.487 162.641 17.5781 162.859 17.6875C163.078 17.7969 163.315 17.8971 163.57 17.9883C163.826 18.0612 163.999 18.0977 164.09 18.0977C164.126 18.0977 164.154 18.1706 164.172 18.3164C164.19 18.4622 164.199 18.6172 164.199 18.7812C164.199 18.9453 164.181 19.0547 164.145 19.1094C163.999 19.0911 163.689 19.0638 163.215 19.0273C162.741 19.0091 162.24 18.9818 161.711 18.9453C161.201 18.9089 160.799 18.8906 160.508 18.8906C160.289 18.8906 159.988 18.8997 159.605 18.918C159.241 18.9362 158.858 18.9635 158.457 19C158.056 19.0182 157.701 19.0365 157.391 19.0547C157.081 19.0911 156.871 19.1094 156.762 19.1094Z" fill="black"/>
<path d="M146.973 19.1641C145.988 19.1641 145.059 18.918 144.184 18.4258C143.327 17.9336 142.625 17.2409 142.078 16.3477C141.549 15.4544 141.285 14.4062 141.285 13.2031C141.285 11.9818 141.568 10.888 142.133 9.92188C142.716 8.95573 143.5 8.1901 144.484 7.625C145.487 7.0599 146.608 6.77734 147.848 6.77734C148.613 6.77734 149.251 6.85938 149.762 7.02344C149.816 7.02344 149.844 6.89583 149.844 6.64062V4.48047C149.844 3.71484 149.789 3.05859 149.68 2.51172C149.607 2.22005 149.133 2.07422 148.258 2.07422H148.012C147.902 2.07422 147.848 1.89193 147.848 1.52734C147.848 1.21745 147.902 1.0625 148.012 1.0625C149.069 0.971354 150.062 0.816406 150.992 0.597656C151.94 0.378906 152.615 0.205729 153.016 0.078125L153.289 -0.00390625H153.344C153.417 -0.00390625 153.49 0.0507812 153.562 0.160156C153.635 0.269531 153.681 0.369792 153.699 0.460938C153.499 1.31771 153.398 2.23828 153.398 3.22266V14.9805C153.398 15.3815 153.417 15.819 153.453 16.293C153.49 16.7487 153.572 17.0404 153.699 17.168C153.845 17.2773 154.009 17.3411 154.191 17.3594C154.374 17.3594 154.611 17.3776 154.902 17.4141L155.176 17.4414C155.23 17.4596 155.258 17.569 155.258 17.7695C155.258 18.2253 155.203 18.4531 155.094 18.4531C154.638 18.4714 154.109 18.526 153.508 18.6172C152.924 18.7083 152.35 18.7995 151.785 18.8906C151.22 18.9818 150.764 19.0547 150.418 19.1094L150.008 19.1641C149.898 19.1823 149.844 19.0273 149.844 18.6992V18.125C149.844 17.9792 149.807 17.9427 149.734 18.0156C148.969 18.7812 148.048 19.1641 146.973 19.1641ZM147.684 17.4961C148.303 17.4961 148.814 17.3229 149.215 16.9766C149.634 16.612 149.844 16.1745 149.844 15.6641V10.6875C149.844 10.4688 149.826 10.2591 149.789 10.0586C149.753 9.85807 149.671 9.60286 149.543 9.29297C149.415 8.98307 149.188 8.73698 148.859 8.55469C148.549 8.35417 148.158 8.25391 147.684 8.25391C146.827 8.25391 146.198 8.60026 145.797 9.29297C145.414 9.96745 145.223 11.0521 145.223 12.5469C145.223 15.8464 146.043 17.4961 147.684 17.4961Z" fill="black"/>
<path d="M124.906 19.1094C124.833 19.0365 124.797 18.8451 124.797 18.5352C124.797 18.2435 124.833 18.0977 124.906 18.0977C125.052 18.0977 125.253 18.0612 125.508 17.9883C125.781 17.8971 126.036 17.7969 126.273 17.6875C126.529 17.5781 126.665 17.487 126.684 17.4141C126.811 16.9036 126.875 16.2109 126.875 15.3359V11.5898C126.875 10.569 126.711 9.88542 126.383 9.53906C126.237 9.35677 126.036 9.22917 125.781 9.15625C125.544 9.08333 125.335 9.03776 125.152 9.01953C124.97 8.98307 124.879 8.94661 124.879 8.91016C124.879 8.27214 124.924 7.95312 125.016 7.95312C125.49 7.95312 126.164 7.85286 127.039 7.65234C127.914 7.43359 128.908 7.20573 130.02 6.96875L130.156 6.94141C130.174 6.92318 130.211 6.91406 130.266 6.91406L130.32 6.88672C130.411 6.88672 130.503 6.95052 130.594 7.07812C130.703 7.1875 130.749 7.27865 130.73 7.35156L130.621 8.19922C130.621 8.29036 130.63 8.34505 130.648 8.36328C130.685 8.36328 130.749 8.31771 130.84 8.22656C131.842 7.27865 133.109 6.80469 134.641 6.80469C135.698 6.80469 136.555 7.2513 137.211 8.14453C137.885 9.03776 138.223 10.3958 138.223 12.2188V14.9258C138.223 16.1289 138.286 16.9583 138.414 17.4141C138.451 17.487 138.587 17.5781 138.824 17.6875C139.061 17.7969 139.307 17.8971 139.562 17.9883C139.836 18.0612 140.027 18.0977 140.137 18.0977C140.173 18.0977 140.201 18.1706 140.219 18.3164C140.237 18.4622 140.246 18.6172 140.246 18.7812C140.246 18.9453 140.228 19.0547 140.191 19.1094C140.082 19.1094 139.872 19.0911 139.562 19.0547C139.253 19.0365 138.888 19.0182 138.469 19C138.068 18.9635 137.685 18.9362 137.32 18.918C136.956 18.8997 136.664 18.8906 136.445 18.8906C136.154 18.8906 135.743 18.9089 135.215 18.9453C134.704 18.9818 134.212 19.0091 133.738 19.0273C133.264 19.0638 132.954 19.0911 132.809 19.1094C132.736 19.0365 132.699 18.8451 132.699 18.5352C132.699 18.2435 132.736 18.0977 132.809 18.0977C132.954 18.0977 133.146 18.0612 133.383 17.9883C133.638 17.8971 133.875 17.7969 134.094 17.6875C134.331 17.5781 134.458 17.487 134.477 17.4141C134.604 16.9036 134.668 16.2109 134.668 15.3359V12.875C134.668 11.526 134.477 10.569 134.094 10.0039C133.729 9.42057 133.137 9.12891 132.316 9.12891C131.751 9.12891 131.296 9.23828 130.949 9.45703C130.603 9.65755 130.43 9.94922 130.43 10.332V14.9258C130.43 16.1289 130.493 16.9583 130.621 17.4141C130.658 17.487 130.785 17.5781 131.004 17.6875C131.223 17.7969 131.46 17.8971 131.715 17.9883C131.97 18.0612 132.143 18.0977 132.234 18.0977C132.271 18.0977 132.298 18.1706 132.316 18.3164C132.335 18.4622 132.344 18.6172 132.344 18.7812C132.344 18.9453 132.326 19.0547 132.289 19.1094C132.143 19.0911 131.833 19.0638 131.359 19.0273C130.885 19.0091 130.384 18.9818 129.855 18.9453C129.345 18.9089 128.944 18.8906 128.652 18.8906C128.434 18.8906 128.133 18.8997 127.75 18.918C127.385 18.9362 127.003 18.9635 126.602 19C126.201 19.0182 125.845 19.0365 125.535 19.0547C125.225 19.0911 125.016 19.1094 124.906 19.1094Z" fill="black"/>
<path d="M117.086 19.1914C115.901 19.1914 114.816 18.918 113.832 18.3711C112.866 17.806 112.091 17.0586 111.508 16.1289C110.943 15.181 110.66 14.1328 110.66 12.9844C110.66 11.8177 110.943 10.7695 111.508 9.83984C112.091 8.91016 112.866 8.17188 113.832 7.625C114.816 7.0599 115.901 6.77734 117.086 6.77734C118.289 6.77734 119.374 7.0599 120.34 7.625C121.306 8.17188 122.072 8.91016 122.637 9.83984C123.22 10.7695 123.512 11.8177 123.512 12.9844C123.512 14.1328 123.229 15.181 122.664 16.1289C122.099 17.0586 121.324 17.806 120.34 18.3711C119.374 18.918 118.289 19.1914 117.086 19.1914ZM117.359 17.6875C117.87 17.6875 118.289 17.5143 118.617 17.168C118.945 16.8216 119.182 16.3659 119.328 15.8008C119.492 15.2174 119.574 14.5977 119.574 13.9414C119.574 10.168 118.617 8.28125 116.703 8.28125C116.193 8.28125 115.773 8.46354 115.445 8.82812C115.135 9.19271 114.908 9.66667 114.762 10.25C114.616 10.8333 114.543 11.4622 114.543 12.1367C114.543 15.8372 115.482 17.6875 117.359 17.6875Z" fill="black"/>
<path d="M103.25 19.2734C102.521 19.2734 101.728 19.2096 100.871 19.082C100.014 18.9727 99.0755 18.7995 98.0547 18.5625C97.9635 18.1615 97.8633 17.6602 97.7539 17.0586C97.6628 16.457 97.5807 15.8737 97.5078 15.3086C97.4531 14.7253 97.4258 14.2969 97.4258 14.0234C97.4805 13.8411 97.6445 13.75 97.918 13.75C98.4831 13.75 98.7747 13.8047 98.793 13.9141C98.9023 14.4609 99.1484 15.0352 99.5312 15.6367C99.9141 16.2201 100.379 16.7122 100.926 17.1133C101.491 17.5143 102.083 17.7148 102.703 17.7148C104.508 17.7148 105.41 16.7214 105.41 14.7344C105.41 14.2057 105.201 13.7227 104.781 13.2852C104.38 12.8477 103.906 12.4557 103.359 12.1094C102.831 11.763 102.375 11.4622 101.992 11.207L101.172 10.6602C100.552 10.2409 99.9688 9.8125 99.4219 9.375C98.875 8.91927 98.4284 8.39974 98.082 7.81641C97.7539 7.21484 97.5898 6.48568 97.5898 5.62891C97.5898 4.69922 97.8724 3.86068 98.4375 3.11328C99.0026 2.36589 99.7318 1.77344 100.625 1.33594C101.518 0.898438 102.448 0.679688 103.414 0.679688C103.797 0.679688 104.189 0.707031 104.59 0.761719C105.009 0.816406 105.365 0.871094 105.656 0.925781C106.203 1.03516 106.668 1.14453 107.051 1.25391C107.452 1.34505 107.771 1.40885 108.008 1.44531C108.099 2.33854 108.172 3.15885 108.227 3.90625C108.281 4.65365 108.309 5.34635 108.309 5.98438C108.236 6.16667 108.099 6.25781 107.898 6.25781C107.352 6.25781 107.069 6.19401 107.051 6.06641C106.978 5.44661 106.777 4.84505 106.449 4.26172C106.121 3.67839 105.702 3.19531 105.191 2.8125C104.681 2.41146 104.098 2.21094 103.441 2.21094C102.822 2.21094 102.293 2.40234 101.855 2.78516C101.436 3.16797 101.227 3.77865 101.227 4.61719C101.227 5.36458 101.555 6.02083 102.211 6.58594C102.885 7.15104 103.751 7.77083 104.809 8.44531L106.203 9.32031C106.714 9.63021 107.197 9.97656 107.652 10.3594C108.108 10.724 108.482 11.207 108.773 11.8086C109.065 12.3919 109.211 13.194 109.211 14.2148C109.211 15.181 108.928 16.0469 108.363 16.8125C107.816 17.5781 107.087 18.1797 106.176 18.6172C105.283 19.0547 104.307 19.2734 103.25 19.2734Z" fill="black"/>
<path d="M75.6875 19.1094C75.6146 19.0365 75.5781 18.8451 75.5781 18.5352C75.5781 18.2435 75.6146 18.0977 75.6875 18.0977C75.8333 18.0977 76.043 18.0612 76.3164 17.9883C76.5898 17.8971 76.8451 17.7969 77.082 17.6875C77.319 17.5781 77.4466 17.487 77.4648 17.4141C77.5924 16.9036 77.6562 16.2109 77.6562 15.3359V4.48047C77.6562 4.0612 77.638 3.6875 77.6016 3.35938C77.5833 3.03125 77.556 2.7487 77.5195 2.51172C77.4466 2.22005 76.9727 2.07422 76.0977 2.07422H75.8516C75.7422 2.07422 75.6875 1.89193 75.6875 1.52734C75.6875 1.21745 75.7422 1.0625 75.8516 1.0625C76.9089 0.971354 77.9023 0.816406 78.832 0.597656C79.7799 0.378906 80.4544 0.205729 80.8555 0.078125L81.1289 -0.00390625H81.1836C81.2565 -0.00390625 81.3294 0.0507812 81.4023 0.160156C81.4753 0.269531 81.5208 0.369792 81.5391 0.460938C81.3203 1.28125 81.2109 2.20182 81.2109 3.22266V8.30859C81.2109 8.4362 81.2474 8.5 81.3203 8.5C81.3385 8.5 81.3841 8.46354 81.457 8.39062C81.8581 7.9349 82.4232 7.5612 83.1523 7.26953C83.8815 6.95964 84.638 6.80469 85.4219 6.80469C86.4792 6.80469 87.3359 7.2513 87.9922 8.14453C88.6667 9.03776 89.0039 10.3958 89.0039 12.2188V14.9258C89.0039 16.1289 89.0677 16.9583 89.1953 17.4141C89.2318 17.487 89.3685 17.5781 89.6055 17.6875C89.8424 17.7969 90.0885 17.8971 90.3438 17.9883C90.6172 18.0612 90.8086 18.0977 90.918 18.0977C90.9544 18.0977 90.9818 18.1706 91 18.3164C91.0182 18.4622 91.0273 18.6172 91.0273 18.7812C91.0273 18.9453 91.0091 19.0547 90.9727 19.1094C90.8633 19.1094 90.6536 19.0911 90.3438 19.0547C90.0339 19.0365 89.6693 19.0182 89.25 19C88.849 18.9635 88.4661 18.9362 88.1016 18.918C87.737 18.8997 87.4453 18.8906 87.2266 18.8906C86.9349 18.8906 86.5247 18.9089 85.9961 18.9453C85.4857 18.9818 84.9935 19.0091 84.5195 19.0273C84.0456 19.0638 83.7357 19.0911 83.5898 19.1094C83.5169 19.0365 83.4805 18.8451 83.4805 18.5352C83.4805 18.2435 83.5169 18.0977 83.5898 18.0977C83.7357 18.0977 83.9271 18.0612 84.1641 17.9883C84.4193 17.8971 84.6562 17.7969 84.875 17.6875C85.112 17.5781 85.2396 17.487 85.2578 17.4141C85.3854 16.9036 85.4492 16.2109 85.4492 15.3359V12.875C85.4492 11.526 85.2669 10.569 84.9023 10.0039C84.5378 9.42057 83.9453 9.12891 83.125 9.12891C81.849 9.12891 81.2109 9.52995 81.2109 10.332V14.9258C81.2109 16.1289 81.2747 16.9583 81.4023 17.4141C81.4388 17.487 81.5664 17.5781 81.7852 17.6875C82.0039 17.7969 82.2409 17.8971 82.4961 17.9883C82.7513 18.0612 82.9245 18.0977 83.0156 18.0977C83.0521 18.0977 83.0794 18.1706 83.0977 18.3164C83.1159 18.4622 83.125 18.6172 83.125 18.7812C83.125 18.9453 83.1068 19.0547 83.0703 19.1094C82.9245 19.0911 82.6146 19.0638 82.1406 19.0273C81.6667 19.0091 81.1654 18.9818 80.6367 18.9453C80.1263 18.9089 79.7253 18.8906 79.4336 18.8906C79.2148 18.8906 78.9141 18.8997 78.5312 18.918C78.1667 18.9362 77.7839 18.9635 77.3828 19C76.9818 19.0182 76.6263 19.0365 76.3164 19.0547C76.0065 19.0911 75.7969 19.1094 75.6875 19.1094Z" fill="black"/>
<path d="M65.625 19.1914C64.6224 19.1914 63.8203 18.918 63.2188 18.3711C62.6354 17.806 62.3438 17.1042 62.3438 16.2656C62.3438 15.5547 62.5625 14.9349 63 14.4062C63.4557 13.8776 64.0208 13.4583 64.6953 13.1484C64.9505 13.0391 65.1875 12.9479 65.4062 12.875C65.625 12.7839 65.8255 12.7018 66.0078 12.6289C66.7005 12.4102 67.2565 12.2552 67.6758 12.1641C68.0951 12.0547 68.4049 11.9635 68.6055 11.8906C68.7695 11.8359 68.8516 11.6992 68.8516 11.4805V10.4961C68.8516 9.0013 68.3958 8.25391 67.4844 8.25391C66.4271 8.25391 65.8984 8.86458 65.8984 10.0859C65.8984 10.487 65.7344 10.7878 65.4062 10.9883C65.0781 11.1706 64.7135 11.2617 64.3125 11.2617C63.474 11.2617 62.8997 10.9883 62.5898 10.4414C62.5898 9.96745 62.7539 9.51172 63.082 9.07422C63.4284 8.63672 63.875 8.24479 64.4219 7.89844C64.987 7.53385 65.6159 7.2513 66.3086 7.05078C67.0195 6.83203 67.7305 6.72266 68.4414 6.72266C69.7174 6.72266 70.6927 7.07812 71.3672 7.78906C72.0599 8.48177 72.4062 9.7487 72.4062 11.5898V16.0195C72.4062 16.6393 72.625 16.9492 73.0625 16.9492C73.3906 16.9492 73.7005 16.8307 73.9922 16.5938C74.1198 16.6667 74.1836 16.8034 74.1836 17.0039C74.1836 17.4779 74.1198 17.8151 73.9922 18.0156C73.737 18.2526 73.3177 18.5078 72.7344 18.7812C72.1693 19.0365 71.6315 19.1641 71.1211 19.1641C70.6836 19.1641 70.2643 19.0365 69.8633 18.7812C69.4622 18.5078 69.1979 18.1979 69.0703 17.8516C69.0521 17.8516 68.9518 17.9154 68.7695 18.043C68.5872 18.1706 68.4505 18.2708 68.3594 18.3438C67.9948 18.5807 67.5755 18.7812 67.1016 18.9453C66.6276 19.1094 66.1354 19.1914 65.625 19.1914ZM67.3477 17.2227C67.8216 17.2227 68.1862 17.1133 68.4414 16.8945C68.7148 16.6576 68.8516 16.375 68.8516 16.0469V13.2852L67.4297 13.7773C67.0469 13.9049 66.6914 14.0964 66.3633 14.3516C66.0534 14.6068 65.8984 14.944 65.8984 15.3633C65.8984 16.0195 66.0352 16.4935 66.3086 16.7852C66.6003 17.0768 66.9466 17.2227 67.3477 17.2227Z" fill="black"/>
<path d="M51.0508 19C50.6862 18.7812 50.5039 18.5716 50.5039 18.3711C50.5039 18.3346 50.5404 18.2526 50.6133 18.125L56.1094 8.91016L54.4414 8.88281C53.9674 8.86458 53.5482 8.96484 53.1836 9.18359C52.819 9.40234 52.5182 9.66667 52.2812 9.97656C52.0443 10.2682 51.8711 10.5417 51.7617 10.7969C51.707 10.9062 51.4792 10.9609 51.0781 10.9609C50.8594 10.9609 50.75 10.9427 50.75 10.9062C50.75 10.8698 50.7591 10.724 50.7773 10.4688C50.8138 10.2135 50.8685 9.85807 50.9414 9.40234C51.0872 8.49089 51.1693 7.77083 51.1875 7.24219C52.263 7.35156 53.1289 7.40625 53.7852 7.40625H57.1211C57.7044 7.40625 58.2878 7.38802 58.8711 7.35156C59.4544 7.3151 60.0469 7.26042 60.6484 7.1875C60.7031 7.26042 60.7305 7.47917 60.7305 7.84375L55.043 16.9492C54.9154 17.1315 54.8516 17.2591 54.8516 17.332C54.8516 17.4596 54.9609 17.5234 55.1797 17.5234H56.875C58.3333 17.5234 59.3177 16.8307 59.8281 15.4453C59.8828 15.2812 60.1289 15.1992 60.5664 15.1992C60.694 15.1992 60.7943 15.2357 60.8672 15.3086L60.4023 19H51.0508Z" fill="black"/>
<path d="M45.9102 19.1914C44.9076 19.1914 44.0417 18.8815 43.3125 18.2617C42.6016 17.6237 42.2461 16.6029 42.2461 15.1992V8.88281H40.4688C40.3229 8.88281 40.25 8.60026 40.25 8.03516C40.25 7.90755 40.2682 7.80729 40.3047 7.73438C40.8151 7.47917 41.2708 7.23307 41.6719 6.99609C42.0911 6.74089 42.4557 6.49479 42.7656 6.25781C43.5677 5.61979 44.151 5.13672 44.5156 4.80859C44.8802 4.48047 45.0716 4.30729 45.0898 4.28906C45.2357 4.28906 45.3906 4.32552 45.5547 4.39844C45.7188 4.45312 45.8008 4.51693 45.8008 4.58984V7.26953H48.7539C48.8997 7.26953 48.9727 7.36068 48.9727 7.54297C48.9727 8.08984 48.8815 8.53646 48.6992 8.88281H45.8008V15.3633C45.8008 16.7487 46.293 17.4414 47.2773 17.4414C47.7878 17.4414 48.1432 17.3776 48.3438 17.25C48.5625 17.1042 48.7083 17.0312 48.7812 17.0312C48.8542 17.0312 48.9271 17.1224 49 17.3047C49.0911 17.487 49.1367 17.6237 49.1367 17.7148C49.1367 17.8607 48.9544 18.0521 48.5898 18.2891C48.2435 18.526 47.8151 18.7357 47.3047 18.918C46.8125 19.1003 46.3477 19.1914 45.9102 19.1914Z" fill="black"/>
<path d="M27.9727 19.1094C27.8997 19.0365 27.8633 18.8451 27.8633 18.5352C27.8633 18.2435 27.8997 18.0977 27.9727 18.0977C28.1185 18.0977 28.3281 18.0612 28.6016 17.9883C28.875 17.8971 29.1302 17.7969 29.3672 17.6875C29.6042 17.5781 29.7318 17.487 29.75 17.4141C29.8776 16.9036 29.9414 16.2109 29.9414 15.3359V11.5898C29.9414 10.569 29.7773 9.88542 29.4492 9.53906C29.3034 9.35677 29.1029 9.22917 28.8477 9.15625C28.6107 9.08333 28.401 9.03776 28.2188 9.01953C28.0365 8.98307 27.9453 8.94661 27.9453 8.91016C27.9453 8.27214 27.9909 7.95312 28.082 7.95312C28.556 7.95312 29.2122 7.85286 30.0508 7.65234C30.9076 7.43359 31.8099 7.22396 32.7578 7.02344L33.3867 6.88672C33.4779 6.88672 33.569 6.95052 33.6602 7.07812C33.7513 7.1875 33.7969 7.27865 33.7969 7.35156C33.7786 7.46094 33.7513 7.67969 33.7148 8.00781C33.6966 8.33594 33.6784 8.51823 33.6602 8.55469C34.5716 7.36979 35.6016 6.77734 36.75 6.77734C37.5703 6.77734 38.3542 7.11458 39.1016 7.78906C39.1016 8.73698 38.9831 9.4388 38.7461 9.89453C38.5273 10.3503 38.1172 10.5781 37.5156 10.5781C37.151 10.5781 36.7318 10.3685 36.2578 9.94922C35.7839 9.52995 35.3646 9.32031 35 9.32031C34.6354 9.32031 34.3438 9.46615 34.125 9.75781C33.9062 10.0312 33.7422 10.3867 33.6328 10.8242C33.5417 11.2617 33.4961 11.7174 33.4961 12.1914V14.9531C33.4961 16.138 33.5599 16.9583 33.6875 17.4141C33.724 17.487 33.8516 17.5781 34.0703 17.6875C34.2891 17.7969 34.526 17.8971 34.7812 17.9883C35.0365 18.0612 35.2096 18.0977 35.3008 18.0977C35.3372 18.0977 35.3646 18.1706 35.3828 18.3164C35.401 18.4622 35.4102 18.6172 35.4102 18.7812C35.4102 18.9453 35.3919 19.0547 35.3555 19.1094C35.2096 19.0911 34.8997 19.0638 34.4258 19.0273C33.9518 19.0091 33.4505 18.9818 32.9219 18.9453C32.4115 18.9089 32.0104 18.8906 31.7188 18.8906C31.5 18.8906 31.1992 18.8997 30.8164 18.918C30.4518 18.9362 30.069 18.9635 29.668 19C29.2669 19.0182 28.9115 19.0365 28.6016 19.0547C28.2917 19.0911 28.082 19.1094 27.9727 19.1094Z" fill="black"/>
<path d="M19.0586 19.1094C18.9857 19.0365 18.9492 18.8633 18.9492 18.5898C18.9492 18.3164 18.9857 18.1797 19.0586 18.1797C19.2044 18.1797 19.3958 18.1432 19.6328 18.0703C19.8698 17.9974 20.0977 17.9062 20.3164 17.7969C20.5352 17.6875 20.6536 17.5872 20.6719 17.4961C20.7995 16.9857 20.8633 16.293 20.8633 15.418V11.4258C20.8633 10.4049 20.6992 9.72135 20.3711 9.375C20.2253 9.19271 20.0247 9.0651 19.7695 8.99219C19.5326 8.91927 19.3229 8.8737 19.1406 8.85547C18.9583 8.81901 18.8672 8.78255 18.8672 8.74609C18.8672 8.21745 18.9128 7.95312 19.0039 7.95312C19.168 7.95312 19.4688 7.91667 19.9062 7.84375C20.3438 7.77083 20.8268 7.67969 21.3555 7.57031C21.9023 7.46094 22.4128 7.35156 22.8867 7.24219C23.3789 7.13281 23.7526 7.04167 24.0078 6.96875L24.3086 6.88672C24.3997 6.88672 24.4909 6.95052 24.582 7.07812C24.6732 7.1875 24.7188 7.27865 24.7188 7.35156C24.6276 8.15365 24.5547 8.78255 24.5 9.23828C24.4453 9.69401 24.418 9.97656 24.418 10.0859V15.0078C24.418 16.0469 24.4909 16.8763 24.6367 17.4961C24.6732 17.569 24.7917 17.6602 24.9922 17.7695C25.2109 17.8789 25.4388 17.9792 25.6758 18.0703C25.9128 18.1432 26.0768 18.1797 26.168 18.1797C26.2227 18.1797 26.25 18.3164 26.25 18.5898C26.2682 18.8633 26.2591 19.0365 26.2227 19.1094C26.0768 19.0911 25.7669 19.0638 25.293 19.0273C24.8372 19.0091 24.3542 18.9818 23.8438 18.9453C23.3333 18.9089 22.9323 18.8906 22.6406 18.8906C22.349 18.8906 21.9479 18.9089 21.4375 18.9453C20.9271 18.9818 20.444 19.0091 19.9883 19.0273C19.5326 19.0638 19.2227 19.0911 19.0586 19.1094ZM22.5039 4.17969C21.9388 4.17969 21.4557 3.98828 21.0547 3.60547C20.6719 3.20443 20.4805 2.72135 20.4805 2.15625C20.4805 1.59115 20.6719 1.11719 21.0547 0.734375C21.4557 0.333333 21.9388 0.132812 22.5039 0.132812C23.069 0.132812 23.543 0.333333 23.9258 0.734375C24.3268 1.11719 24.5273 1.59115 24.5273 2.15625C24.5273 2.72135 24.3268 3.20443 23.9258 3.60547C23.543 3.98828 23.069 4.17969 22.5039 4.17969Z" fill="black"/>
<path d="M5.14062 19.1094C5.06771 19.0365 5.03125 18.8906 5.03125 18.6719C5.03125 18.2891 5.05859 18.0977 5.11328 18.0977C5.25911 18.0977 5.46875 18.0612 5.74219 17.9883C6.01562 17.9154 6.27083 17.8242 6.50781 17.7148C6.74479 17.6055 6.88151 17.5052 6.91797 17.4141C6.99089 17.1589 7.03646 16.8581 7.05469 16.5117C7.09115 16.1654 7.10938 15.7643 7.10938 15.3086V5.41016C7.10938 3.98828 7.03646 3.14974 6.89062 2.89453L6.75391 2.64844C6.68099 2.57552 6.44401 2.52083 6.04297 2.48438C5.64193 2.42969 5.17708 2.40234 4.64844 2.40234C3.90104 2.40234 3.29036 2.61198 2.81641 3.03125C2.34245 3.43229 1.97786 4.11589 1.72266 5.08203C1.6862 5.17318 1.59505 5.21875 1.44922 5.21875C1.04818 5.21875 0.783854 5.15495 0.65625 5.02734L1.17578 0.570312C1.57682 0.661458 1.93229 0.734375 2.24219 0.789062C2.55208 0.84375 2.82552 0.871094 3.0625 0.871094C3.99219 0.871094 4.98568 0.898438 6.04297 0.953125C7.11849 1.00781 8.12109 1.03516 9.05078 1.03516C9.98047 1.03516 10.9831 1.00781 12.0586 0.953125C13.1341 0.898438 14.1367 0.871094 15.0664 0.871094C15.3034 0.871094 15.5768 0.84375 15.8867 0.789062C16.1966 0.734375 16.5521 0.661458 16.9531 0.570312L17.4727 5.05469C17.3451 5.18229 17.0807 5.24609 16.6797 5.24609C16.5339 5.24609 16.4427 5.20052 16.4062 5.10938C15.9505 3.30469 14.9753 2.40234 13.4805 2.40234C12.0221 2.40234 11.2474 2.56641 11.1562 2.89453C11.0833 3.14974 11.0286 3.47786 10.9922 3.87891C10.9557 4.27995 10.9375 4.76302 10.9375 5.32812V15.1992C10.9375 15.6549 10.9557 16.0651 10.9922 16.4297C11.0286 16.7943 11.0833 17.1224 11.1562 17.4141C11.1927 17.487 11.3203 17.5781 11.5391 17.6875C11.776 17.7969 12.0221 17.8971 12.2773 17.9883C12.5508 18.0612 12.7422 18.0977 12.8516 18.0977C12.9245 18.0977 12.9609 18.2708 12.9609 18.6172C12.9609 18.7995 12.9427 18.9635 12.9062 19.1094C12.8333 19.1094 12.6602 19.1003 12.3867 19.082C12.1133 19.0638 11.7396 19.0365 11.2656 19C10.7917 18.9635 10.3724 18.9362 10.0078 18.918C9.64323 18.8997 9.34245 18.8906 9.10547 18.8906C8.77734 18.8906 8.33073 18.9089 7.76562 18.9453C7.20052 18.9818 6.66276 19.0091 6.15234 19.0273C5.66016 19.0638 5.32292 19.0911 5.14062 19.1094Z" fill="black"/>
</svg>
