<?xml version="1.0" standalone="no"?>
<!DOCTYPE svg PUBLIC "-//W3C//DTD SVG 20010904//EN"
 "http://www.w3.org/TR/2001/REC-SVG-20010904/DTD/svg10.dtd">
<svg version="1.0" xmlns="http://www.w3.org/2000/svg"
 width="500.000000pt" height="500.000000pt" viewBox="0 0 500.000000 500.000000"
 preserveAspectRatio="xMidYMid meet">
<metadata>
Created by potrace 1.14, written by Peter Selinger 2001-2017
</metadata>
<g transform="translate(0.000000,500.000000) scale(0.100000,-0.100000)"
fill="#000000" stroke="none">
<path d="M4856 4332 c-101 -128 -317 -249 -496 -278 -132 -21 -347 -8 -580 35
-172 32 -215 36 -460 36 -249 0 -348 -8 -505 -39 -165 -33 -375 -123 -543
-234 -106 -69 -275 -235 -325 -319 -72 -118 -95 -237 -65 -335 17 -56 78 -121
140 -148 63 -28 202 -33 283 -11 167 47 357 179 490 341 109 134 196 375 171
474 -10 42 -22 31 -46 -45 -73 -226 -388 -574 -625 -690 -62 -30 -79 -34 -151
-34 -72 0 -86 3 -129 30 -65 40 -88 82 -91 170 -3 80 20 150 81 241 33 51 140
165 195 209 58 46 99 75 106 75 4 0 15 6 23 14 29 25 155 86 246 120 80 30
131 44 230 61 38 6 229 7 275 0 19 -2 58 -7 85 -11 44 -5 213 -35 270 -47 285
-62 561 -68 786 -16 26 6 54 11 63 13 8 1 19 5 22 9 4 4 16 7 26 7 37 0 232
83 325 138 133 80 285 236 269 277 -9 25 -23 17 -70 -43z"/>
<path d="M3565 3758 c-141 -78 -377 -279 -614 -521 -141 -145 -211 -225 -336
-382 -43 -55 -81 -102 -85 -105 -16 -12 -134 -177 -210 -290 -228 -343 -433
-547 -693 -688 -62 -34 -200 -85 -257 -96 -19 -3 -46 -8 -60 -11 -34 -7 -184
-7 -240 0 -156 20 -267 95 -284 195 l-6 35 71 0 c65 0 73 2 95 29 53 61 12
137 -74 138 -87 1 -162 -70 -162 -153 0 -172 203 -302 470 -301 221 1 406 49
620 160 260 134 557 393 795 692 33 41 62 77 65 80 23 21 164 222 328 470 178
269 239 357 297 430 55 68 170 173 258 234 53 37 97 74 97 82 0 17 -46 18 -75
2z"/>
</g>
</svg>
