<?xml version="1.0" standalone="no"?>
<!DOCTYPE svg PUBLIC "-//W3C//DTD SVG 20010904//EN"
 "http://www.w3.org/TR/2001/REC-SVG-20010904/DTD/svg10.dtd">
<svg version="1.0" xmlns="http://www.w3.org/2000/svg"
 width="500.000000pt" height="500.000000pt" viewBox="0 0 500.000000 500.000000"
 preserveAspectRatio="xMidYMid meet">
<metadata>
Created by potrace 1.14, written by Peter Selinger 2001-2017
</metadata>
<g transform="translate(0.000000,500.000000) scale(0.100000,-0.100000)"
fill="#000000" stroke="none">
<path d="M1076 4033 c-1 -1 -134 -3 -295 -4 -245 -3 -294 -5 -299 -17 -8 -21
-7 -417 1 -542 7 -94 19 -176 29 -185 1 -1 18 -10 35 -19 19 -9 35 -27 39 -41
9 -37 63 -47 252 -50 89 -1 164 -4 166 -6 2 -2 7 -87 11 -189 4 -102 8 -214
10 -250 11 -227 18 -717 17 -1165 0 -286 2 -536 7 -555 6 -32 10 -35 41 -35
27 0 35 -4 38 -20 10 -70 5 -67 90 -60 42 3 192 8 332 11 140 3 269 7 285 8
17 2 38 4 47 5 16 1 17 20 12 274 -10 538 -13 721 -20 1339 -6 569 -5 628 9
634 24 9 414 10 470 1 35 -5 47 -4 48 5 0 7 2 22 4 33 2 11 7 54 11 95 4 41 8
89 10 105 2 17 4 123 4 237 1 229 -4 251 -61 263 -21 5 -29 12 -29 29 0 47
-33 58 -227 72 -43 3 -96 7 -118 9 -109 11 -910 27 -919 18z m814 -57 c69 -3
145 -8 170 -10 25 -2 86 -7 135 -11 50 -4 94 -11 99 -16 18 -17 11 -509 -9
-614 -2 -11 -4 -23 -4 -26 -1 -3 -21 -3 -46 1 -43 7 -332 4 -428 -3 -26 -3
-51 -7 -55 -11 -12 -13 -8 -662 14 -1902 l6 -342 -44 -4 c-23 -3 -151 -6 -283
-7 -132 -1 -268 -5 -302 -7 l-63 -6 -1 49 c0 26 0 93 2 148 9 354 0 1371 -17
1760 -8 191 -12 269 -13 281 -1 11 -55 29 -119 39 -19 3 -113 8 -210 10 -96 3
-177 6 -178 8 -14 14 -23 156 -23 397 -1 232 1 263 11 270 10 8 1203 4 1358
-4z"/>
<path d="M3407 4004 c-1 -1 -34 -5 -73 -8 -86 -8 -204 -41 -284 -78 -260 -123
-440 -323 -524 -582 -33 -101 -38 -133 -41 -269 -4 -211 48 -382 167 -547 50
-68 232 -248 294 -288 75 -50 175 -83 324 -107 194 -32 320 -87 360 -157 41
-73 26 -202 -29 -246 -48 -38 -97 -54 -163 -55 -119 -1 -171 40 -185 144 -5
36 -8 39 -38 39 -35 0 -45 13 -45 56 0 13 -3 25 -7 25 -17 3 -269 7 -428 8
-151 1 -285 -5 -292 -13 -8 -7 -8 -155 -1 -214 42 -334 340 -638 763 -775 151
-49 242 -63 411 -61 246 3 461 96 634 274 126 130 207 292 239 477 44 261 -1
465 -155 695 -61 92 -250 298 -274 298 -5 0 -15 6 -22 13 -26 26 -135 95 -203
129 -101 51 -197 83 -305 102 -185 33 -191 37 -192 130 -2 108 75 187 189 192
116 5 166 -36 168 -139 l2 -62 41 -9 c39 -9 42 -12 42 -43 0 -26 5 -34 23 -38
12 -3 45 -10 72 -16 60 -14 379 -20 450 -9 28 4 77 11 110 15 33 3 63 12 67
18 27 43 29 385 3 427 -2 4 -6 19 -9 35 -3 16 -23 65 -44 110 -153 318 -519
519 -965 529 -43 1 -79 1 -80 0z m183 -48 c84 -6 129 -12 162 -22 10 -3 30 -7
45 -10 47 -9 144 -44 207 -76 196 -99 304 -216 362 -395 26 -79 29 -102 29
-218 0 -130 -10 -226 -23 -223 -4 1 -27 -1 -52 -5 -180 -27 -430 -29 -510 -3
-8 2 -26 7 -40 10 -23 5 -25 10 -26 63 -1 98 -60 175 -164 214 -159 59 -328
-7 -360 -142 -15 -61 -8 -138 17 -187 32 -62 127 -115 228 -128 119 -16 139
-20 211 -43 299 -96 557 -340 656 -621 20 -57 21 -61 37 -145 30 -161 -6 -410
-81 -559 -114 -227 -289 -370 -533 -437 -101 -27 -328 -34 -450 -13 -231 40
-445 141 -585 276 -157 150 -226 295 -236 493 l-5 103 43 5 c37 4 267 3 536
-2 68 -1 72 -2 72 -24 0 -44 31 -115 67 -153 129 -132 399 -116 475 29 18 33
22 58 22 122 0 93 -22 149 -83 213 -81 85 -150 113 -418 171 -207 45 -241 56
-317 106 -151 97 -269 277 -327 495 -30 117 -30 288 0 415 93 388 456 682 856
694 38 1 71 4 73 6 2 2 9 2 15 0 7 -2 50 -6 97 -9z"/>
</g>
</svg>
