<svg width="741" height="1142" viewBox="0 0 741 1142" fill="none" xmlns="http://www.w3.org/2000/svg">
<ellipse cx="105.466" cy="473.381" rx="114" ry="117.375" fill="#DAB95C"/>
<ellipse cx="63.466" cy="509.381" rx="114" ry="117.375" fill="#DAB95C"/>
<ellipse cx="69.466" cy="461.381" rx="114" ry="117.375" fill="#F299B9"/>
<path d="M313.216 65.7559H444.466V465.506L257.716 397.256L313.216 65.7559Z" fill="#DAB95C"/>
<path d="M258.841 223.033C258.841 223.033 316.966 137.158 386.716 223.033C456.466 308.908 558.091 282.283 558.091 282.283L688.216 171.283C482.341 112.783 376.031 278.158 250.966 278.158L258.841 223.033Z" fill="#116EBE"/>
<ellipse cx="313.216" cy="96.8809" rx="156.75" ry="96.375" fill="#F299B9"/>
<ellipse cx="209.127" cy="176.859" rx="156.75" ry="96.375" transform="rotate(-75 209.127 176.859)" fill="#F22838"/>
<ellipse cx="183.466" cy="282.131" rx="67.5" ry="59.625" fill="#DAB95C"/>
<path d="M455.714 293.583C526.113 336.06 628.795 650.575 607.61 685.685C586.425 720.796 527.661 515.688 457.262 473.211C386.863 430.733 265.912 454.262 287.097 419.151C308.283 384.041 385.315 251.105 455.714 293.583Z" fill="#F24968"/>
<path d="M344.589 549.511C343.258 495.68 257.946 463.877 342.42 461.788C426.894 459.699 496.452 501.645 497.784 555.476C499.115 609.307 431.714 654.64 347.241 656.729C262.767 658.817 345.92 603.343 344.589 549.511Z" fill="#F299B9"/>
<path d="M347.396 549.442C346.065 495.611 430.009 459.622 345.227 461.719C260.445 463.815 192.795 509.154 194.126 562.985C195.457 616.816 265.266 658.756 350.047 656.659C434.829 654.563 348.727 603.273 347.396 549.442Z" fill="#F24968"/>
<path d="M246.466 24.5058L253.591 26.3808L261.466 29.7558L268.216 33.8808L272.341 36.8808L275.341 39.5057L166.966 339.881C151.591 336.506 147.082 333.663 137.716 326.006L246.466 24.5058Z" fill="#116EBE"/>
<circle cx="403.966" cy="347.006" r="7.5" fill="#DAB95C"/>
<circle cx="397.966" cy="323.006" r="7.5" fill="#DAB95C"/>
<circle cx="367.966" cy="341.006" r="7.5" fill="#DAB95C"/>
<path d="M122.971 380.985C175.507 437.293 121.529 685.42 158.644 731.674C195.758 777.928 500.773 661.615 549.842 698.064C598.912 734.512 492.47 1023.08 478.076 878.323C463.681 733.563 -98.9792 457.163 -13.6251 441.618C71.729 426.073 70.4348 324.678 122.971 380.985Z" fill="#116EBE"/>
<path d="M519.466 80.0059H525.466L522.466 92.7559L525.466 105.506H519.466C517.282 95.5473 517.165 89.9645 519.466 80.0059Z" fill="#116EBE"/>
<ellipse cx="503.716" cy="145.631" rx="42" ry="47.625" fill="#F24968"/>
<ellipse cx="533.341" cy="145.631" rx="36.375" ry="47.625" fill="#F24968"/>
<ellipse cx="481.782" cy="167.214" rx="10.125" ry="19.875" transform="rotate(-37.1124 481.782 167.214)" fill="#F299B9"/>
<path d="M565.216 645.506C565.216 667.873 549.466 683.006 532.591 691.631C511.591 684.131 499.966 667.873 499.966 645.506C499.966 623.138 516.841 610.256 532.591 603.506C548.716 611.381 565.216 623.138 565.216 645.506Z" fill="#DAB95C"/>
<ellipse cx="535.216" cy="614.381" rx="2.25" ry="2.625" fill="#F24968"/>
<ellipse cx="535.216" cy="625.631" rx="2.25" ry="2.625" fill="#F24968"/>
<ellipse cx="542.716" cy="615.881" rx="2.25" ry="2.625" fill="#F24968"/>
<path d="M-1.00009 644L499.5 929.5L-1.00004 929.5L-1.00009 644Z" fill="#DAB95C"/>
</svg>
