<svg width="352" height="90" viewBox="0 0 352 90" fill="none" xmlns="http://www.w3.org/2000/svg">
<path d="M76.6679 16.9166C76.4451 18.1422 76.2223 19.7206 75.9994 21.6518C75.7766 23.583 75.6652 25.0871 75.6652 26.1641V65.9953C75.6652 70.0435 75.9994 74.4444 76.6679 79.1981L84.0771 79.9223L83.52 88.5571C82.443 88.4828 79.8247 88.3714 75.6652 88.2228C71.5428 88.0743 66.7891 88 61.4039 88C59.2128 88 56.9287 88.0743 54.5519 88.2228C52.2121 88.3714 50.6894 88.4828 49.9838 88.5571L49.4267 80.5908L56.9473 79.1981C57.0216 78.7525 57.2073 77.3041 57.5044 74.8529C57.8015 72.3646 57.95 70.5448 57.95 69.3935V53.5725H26.3636V65.9953C26.3636 70.0435 26.7164 74.4444 27.4221 79.1981L34.8312 79.9223L34.2741 88.5571C33.1971 88.4828 30.5788 88.3714 26.4193 88.2228C22.2969 88.0743 17.5246 88 12.1024 88C9.91118 88 7.62715 88.0743 5.25027 88.2228C2.91054 88.3714 1.38785 88.4828 0.682217 88.5571L0.125137 80.5908L7.64572 79.1981C7.71999 78.7525 7.90569 77.3041 8.2028 74.8529C8.53705 72.3646 8.70417 70.5448 8.70417 69.3935V29.5623C8.70417 26.2198 8.51848 23.3416 8.14709 20.9276C7.81284 18.4764 7.64572 17.1394 7.64572 16.9166L0.236553 15.5796L0.793633 7.00056C1.46213 7.07484 2.98481 7.18625 5.36169 7.33481C7.73856 7.48336 10.0226 7.55764 12.2138 7.55764C17.5989 7.55764 22.3712 7.48336 26.5307 7.33481C30.6903 7.18625 33.3085 7.07484 34.3856 7.00056L34.9426 16.2481L27.4221 16.9166C27.1992 18.1422 26.9578 19.7206 26.6979 21.6518C26.475 23.583 26.3636 25.0871 26.3636 26.1641V43.6007L57.95 43.1551V29.5623C57.95 26.2198 57.7829 23.3416 57.4487 20.9276C57.1144 18.4764 56.9473 17.1394 56.9473 16.9166L49.5381 15.5796L50.0952 7.00056C50.7637 7.07484 52.2864 7.18625 54.6633 7.33481C57.0401 7.48336 59.3242 7.55764 61.5154 7.55764C66.9005 7.55764 71.6728 7.48336 75.8323 7.33481C79.9918 7.18625 82.5916 7.07484 83.6314 7.00056L84.2442 16.2481L76.6679 16.9166ZM108.644 4.15945C111.467 4.15945 113.677 4.9765 115.274 6.6106C116.871 8.2447 117.669 10.473 117.669 13.2956C117.669 16.0438 116.889 18.235 115.329 19.8691C113.769 21.4661 111.541 22.2646 108.644 22.2646C105.748 22.2646 103.519 21.4475 101.959 19.8134C100.4 18.1793 99.6196 16.0067 99.6196 13.2956C99.6196 10.5473 100.418 8.33755 102.015 6.66631C103.612 4.99507 105.822 4.15945 108.644 4.15945ZM124.855 88.5571C123.927 88.4828 121.643 88.3714 118.003 88.2228C114.364 88.0743 109.833 88 104.411 88C102.219 88 99.9353 88.0743 97.5584 88.2228C95.2187 88.3714 93.7146 88.4828 93.0461 88.5571L92.4333 80.5908L99.9539 79.1981C100.028 78.3439 100.214 76.7284 100.511 74.3515C100.845 71.9747 101.012 70.322 101.012 69.3935V50.8985C101.012 49.8957 100.864 48.2059 100.567 45.829C100.27 43.4522 100.028 41.8366 99.8425 40.9824L91.3191 39.0327L92.3219 30.6208C93.2504 30.7693 95.2187 30.9736 98.2269 31.2335C101.235 31.4935 103.723 31.6235 105.692 31.6235L115.719 31.4007L118.115 33.5733C117.966 35.1702 117.743 38.4384 117.446 43.3779C117.149 48.3173 117.001 51.9755 117.001 54.3524V65.9953C117.001 68.3351 117.131 70.9162 117.39 73.7388C117.65 76.5613 117.855 78.3811 118.003 79.1981L125.412 79.9223L124.855 88.5571ZM147.083 62.3186C146.117 62.2443 144.427 62.1329 142.013 61.9844C139.637 61.8358 137.445 61.7615 135.44 61.7615L135.607 54.2409L134.549 6.77773L148.253 5.71928L151.539 8.95034C151.391 10.2502 151.094 13.2213 150.648 17.8636C150.203 22.4688 149.757 27.9282 149.311 34.2418C148.903 40.5553 148.698 46.3861 148.698 51.7341C148.698 53.6282 148.736 55.4108 148.81 57.0821C148.884 58.7533 148.958 59.886 149.033 60.4802L147.083 62.3186ZM141.958 71.5661C139.321 71.5661 137.26 72.4018 135.774 74.073C134.289 75.7442 133.546 77.954 133.546 80.7023C133.546 83.4505 134.289 85.6417 135.774 87.2758C137.26 88.9099 139.321 89.7269 141.958 89.7269C144.632 89.7269 146.711 88.9099 148.197 87.2758C149.683 85.6417 150.425 83.4505 150.425 80.7023C150.425 77.8797 149.683 75.6514 148.197 74.0173C146.711 72.3832 144.632 71.5661 141.958 71.5661ZM207.916 16.9166C207.693 18.1422 207.452 19.7206 207.192 21.6518C206.969 23.583 206.858 25.0871 206.858 26.1641V65.9953C206.858 70.0435 207.21 74.4444 207.916 79.1981L215.325 79.9223L214.768 88.5571C213.691 88.4828 211.073 88.3714 206.913 88.2228C202.791 88.0743 198.019 88 192.596 88C190.405 88 188.121 88.0743 185.744 88.2228C183.404 88.3714 181.9 88.4828 181.232 88.5571L180.619 80.5908L188.195 79.1981C188.27 78.7525 188.455 77.3041 188.752 74.8529C189.05 72.3646 189.198 70.5448 189.198 69.3935V29.5623C189.198 26.2198 189.031 23.3416 188.697 20.9276C188.362 18.4764 188.195 17.1394 188.195 16.9166L180.73 15.5796L181.343 7.00056C182.012 7.07484 183.516 7.18625 185.856 7.33481C188.233 7.48336 190.517 7.55764 192.708 7.55764C198.093 7.55764 202.865 7.48336 207.025 7.33481C211.184 7.18625 213.802 7.07484 214.879 7.00056L215.437 16.2481L207.916 16.9166ZM230.478 22.8216C231.815 21.5589 232.706 19.8877 233.152 17.8079C230.812 17.8079 228.881 17.0466 227.358 15.5239C225.835 14.0012 225.074 12.07 225.074 9.73025C225.074 7.13054 225.91 4.88366 227.581 2.98958C229.289 1.09551 231.443 0.148474 234.043 0.148474C236.94 0.148474 239.187 1.24407 240.784 3.43525C242.381 5.58929 243.179 8.26327 243.179 11.4572C243.179 14.2055 242.529 16.9166 241.229 19.5906C239.967 22.2274 238.073 24.4372 235.547 26.2198C233.022 28.0025 230.051 29.0424 226.634 29.3395L225.631 26.0527C227.525 25.1242 229.141 24.0472 230.478 22.8216ZM350.473 88.5571C349.544 88.4828 347.26 88.3714 343.621 88.2228C339.981 88.0743 335.469 88 330.084 88C327.892 88 325.831 88.0743 323.9 88.2228C322.006 88.3714 320.799 88.4828 320.279 88.5571L319.666 80.5908L326.073 79.1981L326.407 74.1844L326.63 69.3935V52.514C326.63 49.3201 326.017 46.7761 324.791 44.882C323.603 42.9879 321.709 42.0409 319.109 42.0409C316.287 42.0409 313.854 43.4522 311.811 46.2747C309.769 49.0601 308.747 52.8854 308.747 57.7506V65.9953C308.747 68.3351 308.877 70.9162 309.137 73.7388C309.397 76.5613 309.602 78.3811 309.75 79.1981L317.159 79.9223L316.602 88.5571C315.674 88.4828 313.39 88.3714 309.75 88.2228C306.111 88.0743 301.598 88 296.213 88C294.022 88 291.961 88.0743 290.03 88.2228C288.136 88.3714 286.91 88.4828 286.353 88.5571L285.796 80.5908L292.202 79.1981L292.536 74.1844L292.759 69.3935V52.514C292.759 49.3201 292.147 46.7761 290.921 44.882C289.732 42.9879 287.838 42.0409 285.239 42.0409C282.416 42.0409 279.984 43.4522 277.941 46.2747C275.898 49.0601 274.877 52.8854 274.877 57.7506V65.9953C274.877 68.3351 275.007 70.9162 275.267 73.7388C275.527 76.5613 275.731 78.3811 275.88 79.1981L283.289 79.9223L282.732 88.5571C281.803 88.4828 279.519 88.3714 275.88 88.2228C272.24 88.0743 267.709 88 262.287 88C260.096 88 257.812 88.0743 255.435 88.2228C253.095 88.3714 251.591 88.4828 250.923 88.5571L250.31 80.5908L257.83 79.1981C257.905 78.3439 258.09 76.747 258.387 74.4072C258.722 72.0675 258.889 70.3963 258.889 69.3935V50.8985C258.889 49.97 258.74 48.2988 258.443 45.8847C258.146 43.4707 257.905 41.8366 257.719 40.9824L249.196 39.0327L250.198 30.6208C251.127 30.7693 253.095 30.9736 256.103 31.2335C259.112 31.4935 261.6 31.6235 263.568 31.6235L269.028 31.4007L271.423 33.5733L272.593 41.5395C274.858 38.0485 277.458 35.3559 280.392 33.4619C283.326 31.5678 286.724 30.6208 290.587 30.6208C298.869 30.6208 304.347 33.9632 307.021 40.6482C311.663 33.9632 317.475 30.6208 324.457 30.6208C330.399 30.6208 334.912 32.3477 337.994 35.8016C341.077 39.2555 342.618 44.2878 342.618 50.8985V65.9953C342.618 68.3351 342.748 70.9162 343.008 73.7388C343.268 76.5613 343.491 78.3811 343.676 79.1981L351.086 79.9223L350.473 88.5571Z" fill="#637560"/>
</svg>
