<?xml version="1.0" encoding="utf-8"?>
<!-- Generator: Adobe Illustrator 27.5.0, SVG Export Plug-In . SVG Version: 6.00 Build 0)  -->
<svg version="1.1" xmlns="http://www.w3.org/2000/svg" xmlns:xlink="http://www.w3.org/1999/xlink" x="0px" y="0px"
	 viewBox="0 0 500 500" style="enable-background:new 0 0 500 500;" xml:space="preserve">
<g id="BACKGROUND">
	<rect style="fill:#FFFFFF;" width="500" height="500"/>
</g>
<g id="OBJECTS">
	<g>
		<defs>
			<rect id="SVGID_1_" width="500" height="500"/>
		</defs>
		<clipPath id="SVGID_00000175296381144847521840000010188555355472895412_">
			<use xlink:href="#SVGID_1_"  style="overflow:visible;"/>
		</clipPath>
		<g style="clip-path:url(#SVGID_00000175296381144847521840000010188555355472895412_);">
			<path style="fill:none;stroke:#1B1B1B;stroke-linecap:round;stroke-linejoin:round;stroke-miterlimit:10;" d="M247.794,358.512
				L226.1,396.155l100.432,37.662l86.166-141.518l-98.1-43.802l-15.351,26.57c-6.143,10.633-21.23,11.294-28.314,1.263
				c-14.821-20.987-9.544-50.438-5.667-61.884c5.007-14.782,14.647-18.985,7.891-38.503c-6.756-19.518,9.759-36.534-2.002-56.553
				c-11.761-20.019-3.306-25.27-11.314-34.529c-2.288-2.645-4.893-4.394-7.447-5.541c-5.594-2.515-11.984-2.401-17.724-0.242
				c-33.125,12.461-24.43,40.066-24.43,40.066c1.975,21.237-7.252,27.725,3.006,45.478c10.258,17.754,20.738,19.193,37.874,14.992
				c17.432-4.274,6.009,11.1-8.588,14.65s-20.887,4.973-19.515,15.967c2.429,19.468-1.464,45.722-18.949,58.145
				c-15.531,11.036-41.281,8.583-45.66-13.014c-5.136-25.334,17.754-26.433,9.074-52.866c-8.679-26.433,22.882-41.425,19.726-65.491
				c-3.156-24.066,13.774-52.836,33.813-64.07c12.467-6.989,18.587-6.81,21.433-5.676c1.538,0.612,3.281,0.562,4.785-0.127
				c4.003-1.834,13.168-2.511,30.447,12.486c24.95,21.655,13.181,65.435,33.424,81.912c20.242,16.477,23.201,52.792,5.649,72.497
				c-17.85,20.038-31.184-11.751-3.295-18.359c17.615-4.174,32.568-2.153,49.747,22.189c12.158,17.228,34.329,75.152,45.463,113.657
				c11.134,38.504,2.712,57.78-35.721,53.813c-42.056-4.341-59.606-39.088-87.14-39.929c-32.549-0.994-36.842-5.186-39.035-8.201
				c-2.193-3.015-0.709-4.956-0.709-4.956s-7.32-5-3.276-9.448c3.386-3.724,11.499,5.336,10.128,6.433s-5.756-7.126-5.756-7.126
				c-4.66-4.66-6.852-8.223-4.111-11.512c2.741-3.289,15.075,8.223,12.06,8.771c-3.015,0.548-12.334-14.253-7.126-17.816
				c5.208-3.563,9.045,4.111,14.527,4.66c5.482,0.548,6.304-2.467,6.304-2.467c-11.238,0.548-18.639-6.578-19.461-10.416
				c-0.822-3.837,9.319-2.467,16.446-1.919c7.126,0.548,14.718,2.902,29.171,16.479c14.453,13.577,47.416,22.225,64.004,24.11
				c21.55,2.449,29.877,9.796,29.877,9.796s16.72,6.537,31.04,27.158c14.32,20.621,56.135,47.543,104.824,21.194"/>
			<path style="fill:none;stroke:#1B1B1B;stroke-linecap:round;stroke-linejoin:round;stroke-miterlimit:10;" d="M168.677,216.542
				c-1.084,0.722-17.338-0.722-26.369,17.699c-9.03,18.422-3.251,58.878-8.308,62.49c0,0,14.035,1.766,14.679,7.997
				c0.645,6.231-17.189,1.289-24.924,5.586c-7.735,4.297-13.106,20.412-8.165,22.56s12.247-18.048,27.502-17.618
				c15.255,0.43,0.43,9.024-6.231,11.603c-6.661,2.578-11.817,11.602-10.958,19.122c0.859,7.52,9.024,5.371,9.454,5.371
				c0.43,0,3.223,4.297,9.884,1.504c6.661-2.793,6.248-7.331,6.248-7.331s21.798,6.684,46.393-1.049c0,0-0.097-49.241-1.018-49.997
				c-4.426-3.632-47.818-1.488-48.005,0.744c-0.186,2.233,29.675,5.183,45.772,0.744c0,0-31.259-3.163-45.586,2.791l2.456,46.744
				c0,0,6.652,2.81,10.365,7.118c10.629,12.331,16.276,32.364-4.766,48.116c-21.69,16.237-33.872-11.955-34.441-23.625
				c-0.569-11.67,7.401-23.625,7.401-23.625s6.339-4.934,3.331,19.504c-3.008,24.438-23.686,47.747-45.868,42.86
				c-22.182-4.888-59.559-33.419-102.243,2.031"/>
			<path style="fill:none;stroke:#1B1B1B;stroke-linecap:round;stroke-linejoin:round;stroke-miterlimit:10;" d="M276.277,312.572
				l8.803-13.204c3.945-5.917,8.408-14.4,5.884-20.006c-3.422-7.598-12.679-3.896-20.06,1.589
				c-45.994,34.187-72.491-27.122-45.36-61.562c15.675-19.898-7.773-47.681-7.773-47.681"/>
		</g>
	</g>
</g>
</svg>
