<svg width="239" height="239" viewBox="0 0 239 239" fill="none" xmlns="http://www.w3.org/2000/svg">
<circle cx="119.515" cy="119.309" r="52" transform="rotate(18.1975 119.515 119.309)" stroke="black" stroke-width="17"/>
<circle cx="119.515" cy="119.308" r="69.5" transform="rotate(18.1975 119.515 119.308)" stroke="black" stroke-width="6"/>
<path d="M111.491 140.791C111.989 141.777 113.192 142.173 114.178 141.675L130.244 133.558C131.23 133.06 131.625 131.857 131.127 130.871C130.629 129.885 129.426 129.49 128.44 129.988L114.159 137.202L106.945 122.921C106.446 121.935 105.243 121.54 104.258 122.038C103.272 122.536 102.876 123.739 103.374 124.725L111.491 140.791ZM115.176 140.514L115.475 139.604L111.675 138.354L111.376 139.265L115.176 140.514ZM116.074 137.783L116.672 135.962L112.872 134.713L112.274 136.534L116.074 137.783ZM117.271 134.141L117.869 132.32L114.069 131.071L113.471 132.892L117.271 134.141ZM118.468 130.5L119.067 128.679L115.267 127.43L114.668 129.25L118.468 130.5ZM119.665 126.858L120.264 125.037L116.464 123.788L115.865 125.609L119.665 126.858ZM120.862 123.216L121.461 121.396L117.661 120.146L117.062 121.967L120.862 123.216ZM122.059 119.575L122.658 117.754L118.858 116.505L118.259 118.326L122.059 119.575ZM123.256 115.933L123.855 114.112L120.055 112.863L119.456 114.684L123.256 115.933ZM124.454 112.291L125.052 110.471L121.252 109.222L120.654 111.042L124.454 112.291ZM125.651 108.65L126.249 106.829L122.449 105.58L121.851 107.401L125.651 108.65ZM126.848 105.008L127.446 103.187L123.646 101.938L123.048 103.759L126.848 105.008ZM128.045 101.367L128.643 99.5458L124.844 98.2967L124.245 100.117L128.045 101.367ZM129.242 97.725L129.541 96.8146L125.741 95.5655L125.442 96.4759L129.242 97.725Z" fill="black"/>
<circle cx="210.5" cy="111.293" r="3.5" fill="#14100C"/>
<circle cx="31.5" cy="90.2932" r="3.5" fill="#14100C"/>
<path d="M45.0024 76.6396L32.5752 68.4928L31.3615 69.9437L29.9943 69.0474L37.2716 57.9465L40.595 59.7751L39.679 61.2169L37.7606 60.8054L34.3664 65.5824L39.8556 69.181L42.0812 65.5634L40.9732 64.0493L41.816 62.7637L46.4481 65.8004L45.4983 67.2492L43.7475 66.6266L41.3452 70.1575L46.814 73.7426L49.005 70.8901L50.3314 71.7596L45.4754 79.167L44.3122 78.4045L45.0024 76.6396Z" fill="black"/>
<path d="M42.6881 49.0612C43.1388 48.5697 43.6116 48.319 44.1062 48.3092C44.6118 48.2873 45.0804 48.4743 45.512 48.8701C46.0035 49.3209 46.2462 49.8746 46.24 50.5311C46.2219 51.1766 45.9929 51.7391 45.5531 52.2186C45.1793 52.6262 44.7231 52.8589 44.1844 52.9167C43.6338 52.9636 43.1487 52.7946 42.7292 52.4097C42.2616 51.9809 42.0364 51.4323 42.0536 50.7638C42.0588 50.0843 42.2703 49.5168 42.6881 49.0612ZM48.8941 52.4024L57.5256 60.3187L58.9618 59.1859L59.9688 60.1095L55.2685 65.2344L54.2615 64.3108L55.2481 62.7658L49.0802 57.1089L47.0177 57.3362L46.2984 56.6765L48.1505 52.7799L48.8941 52.4024Z" fill="black"/>
<path d="M62.4662 55.3224L57.2387 48.5077L55.2539 48.6463L54.5411 47.717L56.9065 44.4265L57.6552 44.1597L58.7096 45.5343C58.8406 44.7162 59.1651 43.883 59.6829 43.0347C60.1909 42.1736 60.7804 41.4855 61.4516 40.9707C62.5616 40.1193 63.6147 39.8752 64.611 40.2386C65.5973 40.589 66.6598 41.5063 67.7984 42.9906L71.7784 48.1791L73.3357 47.3228L74.1673 48.407L68.6884 52.6098L67.8568 51.5256L69.0531 50.2389L65.3998 45.4763C64.8355 44.7406 64.3547 44.2074 63.9574 43.8766C63.5602 43.5458 63.1517 43.3875 62.7322 43.4018C62.3127 43.4162 61.8254 43.6362 61.2704 44.0619C60.9864 44.2797 60.7019 44.5903 60.4167 44.9935C60.1315 45.3968 59.9311 45.8171 59.8155 46.2543L65.1618 53.2239L66.579 52.5058L67.4107 53.5899L62.2222 57.57L61.3906 56.4858L62.4662 55.3224Z" fill="black"/>
<path d="M81.1018 23.7002L88.5143 39.816L89.9996 39.1328L90.4686 40.1525C90.2773 40.4375 89.9469 40.7506 89.4772 41.092C89.0144 41.4481 88.48 41.7655 87.8741 42.0442C87.4011 42.2617 87.0091 42.3436 86.6979 42.2898C86.3866 42.236 86.0989 42.0192 85.8347 41.6393C85.6239 42.0765 85.2484 42.5446 84.7081 43.0438C84.1678 43.543 83.5356 43.9591 82.8114 44.2922C81.8804 44.7204 80.9225 44.8566 79.9377 44.7008C78.9676 44.5382 78.0542 44.09 77.1974 43.3561C76.3406 42.6222 75.6301 41.6419 75.0659 40.4153C74.4814 39.1444 74.2535 37.8705 74.3824 36.5937C74.5114 35.3168 74.9565 34.1631 75.7179 33.1325C76.4793 32.1019 77.4733 31.3045 78.6999 30.7404C79.3798 30.4277 79.9248 30.2307 80.335 30.1494L78.9688 27.179L76.3521 27.7379L75.7607 26.4522L80.3588 23.7196L81.1018 23.7002ZM78.9894 32.2455C78.4278 32.5038 77.9915 32.9372 77.6806 33.5458C77.3628 34.1396 77.2227 34.8665 77.2602 35.7266C77.2909 36.5719 77.5238 37.4675 77.9588 38.4133C78.4007 39.3739 78.9313 40.1772 79.5508 40.8233C80.1635 41.4547 80.8048 41.8759 81.4748 42.087C82.1449 42.298 82.7754 42.2676 83.3666 41.9957C83.7656 41.8122 84.1221 41.5945 84.436 41.3427C84.7431 41.0761 84.9667 40.8032 85.1068 40.5239L81.1711 31.9672C80.5147 31.7857 79.7874 31.8785 78.9894 32.2455Z" fill="black"/>
<path d="M105.4 22.8727C107.459 22.565 109.122 22.9377 110.388 23.9908C111.654 25.0439 112.427 26.6185 112.707 28.7146C112.907 30.132 112.795 31.4293 112.37 32.6065C111.943 33.7677 111.272 34.7168 110.358 35.454C109.441 36.175 108.347 36.6255 107.074 36.8055C104.964 37.1038 103.265 36.7035 101.976 35.6043C100.701 34.4868 99.9163 32.8892 99.6224 30.8115C99.422 29.3941 99.5388 28.129 99.9729 27.0162C100.421 25.885 101.112 24.9658 102.047 24.2586C102.998 23.5491 104.116 23.0871 105.4 22.8727ZM105.453 24.467C104.374 24.6196 103.663 25.1718 103.321 26.1237C102.996 27.0734 102.945 28.3455 103.171 29.94C103.387 31.4701 103.833 32.7624 104.508 33.817C105.183 34.8716 106.011 35.3294 106.994 35.1904C108.089 35.0355 108.788 34.4603 109.091 33.4646C109.391 32.4528 109.421 31.0933 109.179 29.386C108.956 27.8076 108.534 26.5613 107.911 25.6471C107.287 24.7169 106.467 24.3235 105.453 24.467Z" fill="black"/>
<path d="M118.534 23.8445L118.622 22.6277L122.605 22.0104L123.126 22.2438L122.532 30.4696C122.445 31.6702 122.528 32.5487 122.781 33.1052C123.035 33.6618 123.575 33.9699 124.403 34.0297C124.873 34.0637 125.367 34.0016 125.884 33.8433C126.401 33.6849 126.781 33.5004 127.025 33.2897L127.604 25.283L126.14 24.5411L126.239 23.1783L130.636 22.591L131.109 22.8209L130.238 34.8674L131.625 34.9677L131.542 36.1115C131.271 36.255 130.822 36.3694 130.196 36.4546C129.587 36.541 129.063 36.5684 128.625 36.5367C128.171 36.5038 127.813 36.372 127.553 36.1411C127.291 35.9265 127.175 35.6164 127.204 35.2108L127.253 34.5294C126.713 35.0122 126.049 35.3964 125.262 35.682C124.476 35.9513 123.75 36.062 123.085 36.0139C121.933 35.9306 121.063 35.6639 120.476 35.2137C119.89 34.7473 119.519 34.1333 119.362 33.3718C119.206 32.594 119.164 31.588 119.237 30.3538L119.656 24.5617L118.534 23.8445Z" fill="black"/>
<path d="M143.696 25.497L147.523 26.4866L147.053 28.3056L143.32 27.3404L142.062 32.2067C141.752 33.4036 141.546 34.2995 141.442 34.8944C141.339 35.4893 141.343 35.9608 141.455 36.3089C141.57 36.6413 141.841 36.8624 142.266 36.9724C142.581 37.0538 142.971 37.1043 143.437 37.1239C143.918 37.1475 144.267 37.1286 144.484 37.0673L144.693 38.4064C144.193 38.7141 143.503 38.8801 142.623 38.9046C141.743 38.929 140.933 38.8455 140.193 38.6541C139.122 38.3772 138.428 37.8784 138.11 37.1578C137.796 36.4214 137.811 35.3918 138.153 34.0689L140.108 26.5096L138.383 26.0636L138.67 24.9533C139.404 24.975 139.921 24.9575 140.221 24.9008C140.537 24.8481 140.828 24.6966 141.095 24.4462C141.468 24.106 142.075 23.2883 142.914 21.9931L144.496 22.4024L143.696 25.497Z" fill="black"/>
<path d="M157.058 42.1714L161.753 35.0086L160.968 33.1807L161.61 32.2012L165.496 33.3485L165.995 33.9672L165.046 35.4161C165.766 35.2661 166.583 35.2665 167.495 35.4173C168.417 35.5545 169.206 35.819 169.863 36.211C170.657 36.692 171.236 37.2177 171.601 37.7878C171.967 38.3579 172.091 39.0134 171.975 39.7542C172.787 39.6442 173.635 39.6849 174.521 39.8765C175.407 40.0682 176.19 40.3869 176.87 40.8328C178.094 41.6353 178.713 42.6051 178.727 43.7419C178.749 44.8651 178.234 46.2294 177.182 47.8348L173.731 53.0997L175.101 54.3478L174.352 55.4906L168.74 51.8121L169.489 50.6694L170.874 51.227L174.044 46.3906C174.579 45.5744 174.939 44.9061 175.125 44.3858C175.324 43.8744 175.345 43.4118 175.188 42.998C175.04 42.5705 174.674 42.165 174.089 41.7816C173.491 41.3892 172.668 41.161 171.62 41.097C171.399 41.6717 171.026 42.3604 170.5 43.163L166.915 48.6321L168.203 49.8267L167.454 50.9694L161.72 47.2107L162.469 46.0679L164.071 46.739L167.295 41.821C168.044 40.6782 168.438 39.7795 168.478 39.125C168.518 38.4705 168.144 37.8847 167.355 37.3674C167.001 37.1356 166.594 36.956 166.133 36.8288C165.685 36.7105 165.218 36.6667 164.731 36.6976L159.915 44.044L161.102 45.1717L160.352 46.3145L154.863 42.7163L155.612 41.5735L157.058 42.1714Z" fill="black"/>
<path d="M192.607 55.4639C193.982 57.0284 194.569 58.6279 194.37 60.2626C194.17 61.8972 193.265 63.4 191.655 64.7707C190.572 65.707 189.421 66.3153 188.201 66.5958C186.994 66.8656 185.832 66.8159 184.717 66.4466C183.615 66.0667 182.643 65.3907 181.803 64.4186C180.409 62.8067 179.825 61.1612 180.051 59.4823C180.299 57.8051 181.217 56.2803 182.805 54.9078C183.888 53.9716 185.014 53.3845 186.185 53.1466C187.378 52.9104 188.526 52.9937 189.627 53.3965C190.738 53.8117 191.732 54.5008 192.607 55.4639ZM191.296 56.372C190.583 55.5476 189.734 55.2495 188.749 55.4778C187.774 55.7184 186.678 56.3654 185.46 57.4186C184.291 58.4294 183.446 59.504 182.925 60.6424C182.404 61.7809 182.468 62.7255 183.117 63.4761C183.84 64.3129 184.702 64.5888 185.703 64.304C186.717 64.0085 187.875 63.2969 189.18 62.1692C190.386 61.1265 191.204 60.0962 191.636 59.078C192.08 58.0493 191.966 57.1473 191.296 56.372Z" fill="black"/>
<path d="M190.962 73.3094L198.339 68.9582L198.442 66.9712L199.45 66.3762L202.43 69.1227L202.592 69.8772L200.764 70.9557C201.384 70.8543 202.098 71.0089 202.907 71.4195C203.724 71.8441 204.302 72.3436 204.641 72.9181C204.963 73.4645 205.142 73.8313 205.176 74.0185L202.36 75.6796C202.362 75.3951 202.306 75.0599 202.192 74.674C202.078 74.2882 201.921 73.9271 201.723 73.5909C201.252 72.7922 200.695 72.2329 200.053 71.9128L192.761 76.2145L193.983 79.0064L192.806 79.7006L188.69 72.7232L189.867 72.029L190.962 73.3094Z" fill="black"/>
<path d="M210.413 85.6665C210.956 87.113 210.976 88.3914 210.473 89.5018C209.969 90.6121 208.985 91.4858 207.522 92.1227C207.01 92.3326 206.521 92.49 206.057 92.5951C205.598 92.7153 205.313 92.7879 205.2 92.8127L202.222 84.8873C200.889 85.4575 199.973 86.2102 199.473 87.1454C198.994 88.0901 198.983 89.1715 199.441 90.3896C199.647 90.9378 199.918 91.4964 200.254 92.0654C200.61 92.6439 200.978 93.1139 201.357 93.4753L200.367 94.447C199.731 94.0953 199.109 93.5037 198.501 92.6721C197.893 91.8406 197.42 90.9756 197.082 90.0773C196.35 88.1282 196.346 86.409 197.073 84.9197C197.804 83.4455 199.16 82.3365 201.14 81.5925C202.449 81.1003 203.72 80.9442 204.952 81.1241C206.199 81.2983 207.301 81.7792 208.257 82.5667C209.213 83.3542 209.932 84.3874 210.413 85.6665ZM208.742 85.5906C208.45 84.814 207.878 84.308 207.024 84.0726C206.187 83.8314 205.134 83.897 203.866 84.2692L205.695 89.1341C206.071 89.0272 206.359 88.9365 206.557 88.8621C207.425 88.5359 208.001 88.1281 208.286 87.6386C208.911 87.126 209.062 86.4433 208.742 85.5906Z" fill="black"/>
<path d="M219.426 138.743C219.279 139.576 219.082 140.317 218.835 140.967C218.586 141.634 218.298 142.326 217.973 143.045L217.764 143.529L213.765 142.6L214.1 140.702L216.403 140.29C216.737 139.986 217.004 139.645 217.203 139.267C217.418 138.892 217.598 138.288 217.745 137.455C217.926 136.43 217.783 135.463 217.316 134.555C216.864 133.649 216.141 132.877 215.147 132.24C214.15 131.618 212.955 131.184 211.561 130.938C210.135 130.686 208.769 130.66 207.462 130.859C206.168 131.077 205.072 131.536 204.172 132.236C203.285 132.955 202.739 133.899 202.532 135.069C202.241 136.719 202.446 137.853 203.146 138.472L205.04 139.673L204.76 141.259L200.94 140.585C200.974 140.393 200.968 140.144 200.923 139.839C200.877 139.534 200.852 139.348 200.848 139.281C200.757 138.389 200.702 137.579 200.682 136.848C200.662 136.118 200.736 135.28 200.903 134.335C201.205 132.621 201.834 131.163 202.789 129.96C203.761 128.761 204.978 127.902 206.44 127.383C207.916 126.884 209.526 126.788 211.273 127.096C213.179 127.432 214.807 128.174 216.158 129.321C217.505 130.483 218.463 131.891 219.03 133.544C219.611 135.216 219.743 136.948 219.426 138.743Z" fill="black"/>
<path d="M199.705 147.494L213.618 153.558L214.886 152.114L216.183 152.679L214.865 157.109L214.378 157.615L209.333 155.39L207.848 154.583C208.087 155.379 208.184 156.193 208.141 157.026C208.091 157.874 207.913 158.648 207.607 159.349C207.172 160.348 206.624 161.014 205.964 161.348C205.298 161.696 204.516 161.781 203.618 161.603C202.728 161.445 201.608 161.064 200.257 160.457L195.045 158.186L194.104 159.613L192.852 159.067L195.652 152.702L196.883 153.238L196.4 155.077L200.829 157.007C201.933 157.488 202.802 157.814 203.438 157.984C204.067 158.17 204.624 158.173 205.11 157.994C205.59 157.831 205.979 157.406 206.278 156.72C206.466 156.288 206.594 155.873 206.66 155.476C206.727 155.079 206.705 154.661 206.594 154.223L198.34 150.626L197.507 151.806L196.254 151.26L198.876 145.243L200.129 145.789L199.705 147.494Z" fill="black"/>
<path d="M197.518 176.701C196.612 177.953 195.556 178.675 194.353 178.868C193.149 179.06 191.877 178.722 190.538 177.853C190.081 177.542 189.68 177.221 189.336 176.892C188.983 176.576 188.765 176.378 188.682 176.298L193.648 169.44C192.437 168.644 191.304 168.295 190.248 168.394C189.196 168.516 188.288 169.104 187.525 170.158C187.181 170.632 186.865 171.166 186.575 171.76C186.29 172.377 186.101 172.943 186.009 173.458L184.652 173.169C184.594 172.444 184.744 171.599 185.102 170.633C185.46 169.667 185.921 168.795 186.483 168.018C187.705 166.332 189.137 165.38 190.779 165.164C192.413 164.961 194.086 165.48 195.798 166.72C196.931 167.54 197.763 168.514 198.293 169.64C198.836 170.777 199.043 171.961 198.914 173.193C198.784 174.425 198.319 175.594 197.518 176.701ZM196.659 175.266C197.146 174.594 197.252 173.837 196.977 172.996C196.716 172.164 196.081 171.322 195.071 170.471L192.023 174.68C192.32 174.935 192.554 175.125 192.725 175.249C193.476 175.793 194.134 176.049 194.7 176.016C195.472 176.254 196.125 176.004 196.659 175.266Z" fill="black"/>
<path d="M185.09 190.603C184.571 191.096 184.013 191.548 183.416 191.958C182.83 192.381 182.346 192.639 181.964 192.732L179.611 190.256L180.866 189.063L182.744 189.87C183.01 189.842 183.277 189.746 183.546 189.58C183.815 189.414 184.055 189.231 184.267 189.029C184.987 188.345 185.256 187.484 185.076 186.443C184.906 185.415 184.323 184.376 183.326 183.327C182.542 182.501 181.74 181.917 180.92 181.574C180.1 181.23 179.327 181.113 178.599 181.221C177.86 181.34 177.219 181.657 176.676 182.173C176.228 182.598 175.819 183.077 175.449 183.608C175.09 184.151 174.859 184.617 174.757 185.006L173.46 184.42C173.513 183.697 173.78 182.927 174.262 182.111C174.743 181.295 175.366 180.523 176.133 179.794C177.065 178.909 178.063 178.342 179.128 178.093C180.192 177.867 181.248 177.952 182.297 178.347C183.345 178.742 184.324 179.405 185.232 180.338C186.229 181.387 186.885 182.526 187.198 183.753C187.512 184.981 187.481 186.189 187.106 187.376C186.741 188.574 186.069 189.65 185.09 190.603Z" fill="black"/>
<path d="M169.365 188.18L177.382 200.807L179.458 200.298L180.217 201.493L176.512 204.625L175.819 204.718L170.012 195.572L169.278 194.189L168.074 200.532L169.881 199.644L170.81 201.107L165.145 204.704L164.203 203.221L165.87 201.931L166.908 197.284L159.699 194.26L158.394 194.799L157.648 193.625L163.127 190.146L163.873 191.32L162.951 192.281L167.721 194.513L168.127 192.376L167.221 191.131L166.476 189.957L165.034 190.554L164.302 189.4L169.946 185.817L170.678 186.97L169.365 188.18Z" fill="black"/>
<path d="M145.652 212.74C143.653 213.323 141.955 213.178 140.559 212.305C139.162 211.433 138.184 209.977 137.623 207.938C137.234 206.56 137.17 205.26 137.432 204.036C137.699 202.828 138.235 201.797 139.042 200.943C139.853 200.105 140.877 199.511 142.113 199.161C144.163 198.581 145.901 198.748 147.327 199.663C148.741 200.598 149.734 202.076 150.305 204.095C150.695 205.472 150.75 206.741 150.47 207.903C150.179 209.084 149.618 210.088 148.787 210.915C147.94 211.746 146.895 212.355 145.652 212.74ZM145.384 211.168C146.433 210.871 147.063 210.228 147.273 209.239C147.467 208.254 147.346 206.986 146.907 205.437C146.486 203.95 145.87 202.73 145.059 201.776C144.248 200.822 143.365 200.48 142.411 200.75C141.346 201.051 140.731 201.716 140.566 202.743C140.404 203.786 140.559 205.137 141.028 206.796C141.462 208.33 142.049 209.508 142.789 210.33C143.533 211.168 144.398 211.447 145.384 211.168Z" fill="black"/>
<path d="M132.462 213.559L132.537 214.776L128.673 215.921L128.125 215.76L127.613 207.529C127.538 206.327 127.338 205.468 127.012 204.95C126.687 204.433 126.11 204.199 125.282 204.251C124.811 204.28 124.33 204.408 123.839 204.634C123.348 204.86 122.996 205.094 122.783 205.335L123.281 213.348L124.83 213.887L124.915 215.251L120.636 216.421L120.137 216.257L119.387 204.202L117.999 204.288L117.928 203.144C118.178 202.965 118.607 202.792 119.216 202.624C119.808 202.456 120.324 202.359 120.762 202.332C121.217 202.304 121.589 202.386 121.878 202.58C122.166 202.758 122.323 203.05 122.348 203.456L122.39 204.137C122.861 203.587 123.468 203.117 124.209 202.729C124.952 202.356 125.657 202.15 126.322 202.108C127.475 202.037 128.372 202.184 129.015 202.552C129.658 202.936 130.108 203.494 130.366 204.228C130.624 204.978 130.8 205.969 130.893 207.202L131.253 212.998L132.462 213.559Z" fill="black"/>
<path d="M107.492 215.293L103.567 214.825L103.789 212.96L107.617 213.416L108.212 208.425C108.358 207.197 108.443 206.282 108.465 205.678C108.488 205.075 108.421 204.608 108.263 204.278C108.104 203.964 107.807 203.781 107.37 203.729C107.047 203.691 106.654 203.693 106.19 203.736C105.71 203.777 105.367 203.843 105.159 203.933L104.773 202.634C105.227 202.262 105.889 202.005 106.757 201.863C107.626 201.72 108.44 201.694 109.199 201.785C110.298 201.916 111.053 202.317 111.464 202.988C111.874 203.676 111.998 204.698 111.836 206.055L110.913 213.808L112.681 214.019L112.546 215.158C111.816 215.234 111.306 215.321 111.016 215.418C110.71 215.512 110.441 215.701 110.211 215.985C109.886 216.373 109.395 217.264 108.738 218.66L107.114 218.467L107.492 215.293Z" fill="black"/>
<path d="M91.8618 200.537L88.1758 208.267L89.201 209.972L88.6969 211.03L84.6909 210.417L84.1132 209.871L84.8588 208.308C84.1649 208.553 83.3557 208.663 82.4311 208.637C81.4996 208.625 80.6818 208.47 79.9777 208.17C79.1267 207.8 78.4818 207.358 78.0428 206.842C77.6039 206.326 77.3919 205.694 77.407 204.944C76.618 205.162 75.7718 205.236 74.8682 205.166C73.9647 205.096 73.1458 204.885 72.4117 204.535C71.0902 203.905 70.3462 203.028 70.1796 201.903C70.006 200.793 70.3322 199.372 71.1583 197.639L73.8676 191.957L72.3418 190.905L72.9298 189.672L78.9866 192.56L78.3986 193.793L76.9511 193.427L74.4623 198.647C74.0422 199.528 73.7754 200.239 73.6619 200.779C73.5336 201.313 73.575 201.774 73.786 202.163C73.99 202.567 74.4077 202.919 75.0391 203.22C75.6852 203.528 76.5313 203.643 77.5776 203.566C77.7192 202.966 77.9965 202.233 78.4095 201.367L81.2238 195.465L79.7861 194.455L80.3742 193.221L86.5631 196.172L85.975 197.405L84.2968 196.957L81.766 202.265C81.1779 203.498 80.9082 204.442 80.9569 205.096C81.0055 205.75 81.4556 206.28 82.3073 206.686C82.689 206.868 83.117 206.991 83.5911 207.054C84.0505 207.111 84.5195 207.092 84.9979 206.995L88.7783 199.066L87.4507 198.109L88.0388 196.876L93.9634 199.7L93.3753 200.934L91.8618 200.537Z" fill="black"/>
<path d="M70.8593 183.285C70.5295 182.846 70.2182 182.51 69.9255 182.277C69.3737 181.796 68.6855 181.595 67.8609 181.674C67.0469 181.742 66.0943 182.141 65.0031 182.873L65.4813 183.29L61.6377 194.829L62.289 195.753L61.1347 197.078L56.3892 192.941L57.5436 191.617L58.8235 192.376L61.613 185.389L62.3882 183.831L60.8636 184.8L54.6139 188.739L55.7778 190.078L54.6235 191.402L50.3563 187.682L51.5106 186.358L52.5562 186.978C54.3982 185.929 56.6484 184.697 59.3068 183.281C61.9652 181.865 63.4626 181.088 63.799 180.95C65.0678 180.286 66.1489 179.826 67.042 179.569C67.9459 179.299 68.7606 179.244 69.4863 179.401C70.2927 179.392 71.0147 179.665 71.6524 180.221C71.8485 180.392 72.0524 180.592 72.264 180.819C72.4756 181.047 72.5961 181.206 72.6253 181.296L70.8593 183.285Z" fill="black"/>
<path d="M42.9938 177.138L41.4841 178.036L38.3895 172.836L39.8992 171.938L40.8496 172.962L45.1886 168.421L46.9354 166.728L44.8447 167.462L36.6175 169.859L35.1451 167.385L41.1676 161.33L42.8096 159.7L40.6604 160.383L34.544 162.319L35.0326 163.761L33.5229 164.659L30.7402 159.983L32.2499 159.085L33.3421 160.252L44.8186 157.255L46.4283 159.96L41.1312 165.611L39.5232 167.108L41.5929 166.387L48.9864 164.258L50.5337 166.858L42.5756 175.91L42.9938 177.138Z" fill="black"/>
<path d="M25.9735 147.125C25.36 145.136 25.4787 143.436 26.3296 142.026C27.1806 140.616 28.6212 139.615 30.6515 139.024C32.0226 138.612 33.3221 138.529 34.5498 138.772C35.7619 139.02 36.801 139.54 37.6672 140.334C38.5177 141.131 39.1275 142.146 39.4966 143.377C40.1085 145.418 39.968 147.158 39.075 148.598C38.1617 150.026 36.7001 151.042 34.69 151.645C33.3189 152.056 32.0506 152.13 30.8852 151.868C29.6996 151.595 28.6869 151.05 27.8473 150.232C27.003 149.398 26.3784 148.363 25.9735 147.125ZM27.5417 146.834C27.8547 147.877 28.5074 148.497 29.4999 148.692C30.4877 148.871 31.7528 148.73 33.2954 148.267C34.7756 147.823 35.9864 147.189 36.9276 146.363C37.8688 145.538 38.1969 144.649 37.912 143.699C37.5943 142.639 36.9206 142.035 35.8907 141.885C34.8453 141.74 33.4967 141.915 31.8451 142.41C30.3181 142.868 29.1495 143.473 28.3391 144.225C27.5132 144.983 27.2474 145.852 27.5417 146.834Z" fill="black"/>
<path d="M34.7855 131.505L26.2721 132.437L25.3612 134.206L24.197 134.334L22.6104 130.604L22.7732 129.85L24.8834 129.619C24.2765 129.457 23.6889 129.022 23.1205 128.315C22.5504 127.592 22.2291 126.899 22.1564 126.236C22.0874 125.605 22.0754 125.198 22.1206 125.013L25.3708 124.657C25.2518 124.915 25.1651 125.244 25.1106 125.642C25.0561 126.041 25.0501 126.434 25.0926 126.823C25.1935 127.744 25.4708 128.483 25.9244 129.039L34.3409 128.117L34.3753 125.069L35.7336 124.921L36.6155 132.973L35.2573 133.122L34.7855 131.505Z" fill="black"/>
<path d="M33.7596 118.218L18.8455 117.084L18.0107 119.051L16.5996 118.944L16.3072 114.101L16.6472 113.49L27.4496 114.312L28.9975 114.552L24.6367 109.791L24.266 111.77L22.5386 111.638L23.0474 104.948L24.7992 105.081L24.8347 107.188L27.9369 110.801L34.6742 106.835L35.0229 105.467L36.4097 105.572L35.9176 112.044L34.5308 111.938L34.3126 110.625L29.6699 113.11L31.1385 114.715L32.6787 114.734L34.0655 114.84L34.4497 113.327L35.8121 113.431L35.3052 120.097L33.9427 119.993L33.7596 118.218Z" fill="black"/>
</svg>
