<svg width="836" height="964" viewBox="0 0 836 964" fill="none" xmlns="http://www.w3.org/2000/svg">
<path d="M314.25 472.875C314.25 537.699 263.21 590.25 200.25 590.25C137.29 590.25 86.25 537.699 86.25 472.875C86.25 408.051 137.29 355.5 200.25 355.5C263.21 355.5 314.25 408.051 314.25 472.875Z" fill="#DAB95C"/>
<path d="M272.25 508.875C272.25 573.699 221.21 626.25 158.25 626.25C95.2895 626.25 44.25 573.699 44.25 508.875C44.25 444.051 95.2895 391.5 158.25 391.5C221.21 391.5 272.25 444.051 272.25 508.875Z" fill="#DAB95C"/>
<path d="M278.25 460.875C278.25 525.699 227.21 578.25 164.25 578.25C101.29 578.25 50.25 525.699 50.25 460.875C50.25 396.051 101.29 343.5 164.25 343.5C227.21 343.5 278.25 396.051 278.25 460.875Z" fill="#F299B9"/>
<path d="M408 65.25H539.25V465L352.5 396.75L408 65.25Z" fill="#DAB95C"/>
<path d="M353.625 222.527C353.625 222.527 411.75 136.652 481.5 222.527C551.25 308.402 652.875 281.777 652.875 281.777L783 170.777C577.125 112.277 470.815 277.652 345.75 277.652L353.625 222.527Z" fill="#116EBE"/>
<path d="M564.75 96.375C564.75 149.601 494.571 192.75 408 192.75C321.429 192.75 251.25 149.601 251.25 96.375C251.25 43.1486 321.429 0 408 0C494.571 0 564.75 43.1486 564.75 96.375Z" fill="#F299B9"/>
<path d="M344.481 24.9433C395.894 38.7193 419.408 117.675 397.002 201.296C374.596 284.917 314.754 341.537 263.341 327.761C211.928 313.985 188.414 235.029 210.82 151.409C233.226 67.7877 293.068 11.1673 344.481 24.9433Z" fill="#F22838"/>
<path d="M345.75 281.625C345.75 314.555 315.529 341.25 278.25 341.25C240.971 341.25 210.75 314.555 210.75 281.625C210.75 248.695 240.971 222 278.25 222C315.529 222 345.75 248.695 345.75 281.625Z" fill="#DAB95C"/>
<path d="M550.498 293.077C620.897 335.555 723.579 650.069 702.394 685.18C681.209 720.291 622.445 515.183 552.046 472.705C481.647 430.228 360.696 453.757 381.881 418.646C403.066 383.535 480.099 250.6 550.498 293.077Z" fill="#F24968"/>
<path d="M439.373 549.005C438.042 495.174 352.731 463.371 437.204 461.282C521.678 459.193 591.237 501.139 592.568 554.97C593.899 608.802 526.499 654.134 442.025 656.223C357.551 658.312 440.705 602.837 439.373 549.005Z" fill="#F299B9"/>
<path d="M442.18 548.936C440.849 495.105 524.793 459.116 440.011 461.213C355.229 463.309 287.579 508.648 288.911 562.479C290.242 616.31 360.05 658.25 444.832 656.153C529.613 654.057 443.511 602.767 442.18 548.936Z" fill="#F24968"/>
<path d="M341.25 24.0004L348.375 25.8754L356.25 29.2504L363 33.3754L367.125 36.3754L370.125 39.0004L261.75 339.375C246.375 336.001 241.866 333.157 232.5 325.501L341.25 24.0004Z" fill="#116EBE"/>
<path d="M506.25 346.5C506.25 350.642 502.892 354 498.75 354C494.608 354 491.25 350.642 491.25 346.5C491.25 342.358 494.608 339 498.75 339C502.892 339 506.25 342.358 506.25 346.5Z" fill="#DAB95C"/>
<path d="M500.25 322.5C500.25 326.642 496.892 330 492.75 330C488.608 330 485.25 326.642 485.25 322.5C485.25 318.358 488.608 315 492.75 315C496.892 315 500.25 318.358 500.25 322.5Z" fill="#DAB95C"/>
<path d="M470.25 340.5C470.25 344.642 466.892 348 462.75 348C458.608 348 455.25 344.642 455.25 340.5C455.25 336.358 458.608 333 462.75 333C466.892 333 470.25 336.358 470.25 340.5Z" fill="#DAB95C"/>
<path d="M217.755 380.479C270.291 436.787 216.313 684.914 253.428 731.168C290.542 777.422 595.557 661.109 644.626 697.558C693.696 734.006 587.254 1022.58 572.86 877.817C558.465 733.057 -4.1952 456.657 81.1589 441.112C166.513 425.567 165.219 324.172 217.755 380.479Z" fill="#116EBE"/>
<path d="M614.25 79.5H620.25L617.25 92.25L620.25 105H614.25C612.065 95.0414 611.949 89.4587 614.25 79.5Z" fill="#116EBE"/>
<path d="M640.5 145.125C640.5 171.428 621.696 192.75 598.5 192.75C575.304 192.75 556.5 171.428 556.5 145.125C556.5 118.822 575.304 97.5 598.5 97.5C621.696 97.5 640.5 118.822 640.5 145.125Z" fill="#F24968"/>
<path d="M664.5 145.125C664.5 171.428 648.214 192.75 628.125 192.75C608.036 192.75 591.75 171.428 591.75 145.125C591.75 118.822 608.036 97.5 628.125 97.5C648.214 97.5 664.5 118.822 664.5 145.125Z" fill="#F24968"/>
<path d="M584.641 160.6C591.264 169.353 593.018 179.184 588.559 182.558C584.099 185.932 575.115 181.571 568.492 172.818C561.869 164.065 560.115 154.234 564.574 150.86C569.033 147.485 578.018 151.846 584.641 160.6Z" fill="#F299B9"/>
<path d="M660 645C660 667.368 644.25 682.5 627.375 691.125C606.375 683.625 594.75 667.368 594.75 645C594.75 622.632 611.625 609.75 627.375 603C643.5 610.875 660 622.632 660 645Z" fill="#DAB95C"/>
<path d="M632.25 613.875C632.25 615.325 631.243 616.5 630 616.5C628.757 616.5 627.75 615.325 627.75 613.875C627.75 612.425 628.757 611.25 630 611.25C631.243 611.25 632.25 612.425 632.25 613.875Z" fill="#F24968"/>
<path d="M632.25 625.125C632.25 626.575 631.243 627.75 630 627.75C628.757 627.75 627.75 626.575 627.75 625.125C627.75 623.675 628.757 622.5 630 622.5C631.243 622.5 632.25 623.675 632.25 625.125Z" fill="#F24968"/>
<path d="M639.75 615.375C639.75 616.825 638.743 618 637.5 618C636.257 618 635.25 616.825 635.25 615.375C635.25 613.925 636.257 612.75 637.5 612.75C638.743 612.75 639.75 613.925 639.75 615.375Z" fill="#F24968"/>
</svg>
