<svg width="895" height="385" viewBox="0 0 895 385" fill="none" xmlns="http://www.w3.org/2000/svg">
<path d="M198.792 57.1738C199.974 57.1738 200.565 59.3765 200.565 63.782C200.565 68.0801 199.49 73.184 197.341 79.0938C195.3 84.8962 192.506 90.4836 188.96 95.8562C185.414 101.121 181.278 106.064 176.55 110.684C171.822 115.197 166.825 119.119 161.56 122.45C150.17 129.542 139.855 133.088 130.614 133.088C121.373 133.088 114.443 130.832 109.822 126.319C105.31 121.806 103.053 116.326 103.053 109.879C103.053 103.324 104.772 96.9307 108.211 90.6985C111.757 84.4664 116.646 78.3416 122.878 72.3244C136.954 59.1079 153.877 49.1686 173.648 42.5067C188.799 37.4565 208.463 34.9314 232.639 34.9314C248.005 34.9314 262.833 36.4894 277.124 39.6055C289.158 41.7545 299.313 42.829 307.586 42.829C315.86 42.829 322.952 42.0769 328.862 40.5726C334.879 38.9608 340.466 36.8655 345.624 34.2867C356.584 28.6992 364.428 22.1984 369.156 14.7843C370.23 12.9576 371.305 12.0443 372.379 12.0443C373.454 12.0443 373.991 12.689 373.991 13.9784C373.991 15.2678 372.057 18.2227 368.189 22.8431C364.428 27.4635 359.378 31.8153 353.038 35.8984C346.806 39.9816 339.822 43.5275 332.085 46.5361C315.753 52.7683 298.668 55.8843 280.831 55.8843C269.656 55.8843 257.46 54.4875 244.244 51.6938C223.721 47.5032 208.678 45.4079 199.114 45.4079C189.659 45.4079 181.546 46.3749 174.777 48.309C168.007 50.1357 161.399 52.6608 154.952 55.8843C148.505 59.0004 142.38 62.6538 136.578 66.8444C130.883 71.035 125.886 75.4942 121.588 80.222C112.24 90.5374 107.566 100.208 107.566 109.234C107.566 117.615 111.327 123.364 118.848 126.48C121.32 127.447 124.436 127.93 128.197 127.93C131.957 127.93 136.202 126.802 140.93 124.546C145.765 122.182 150.6 119.119 155.435 115.359C160.271 111.49 164.999 107.192 169.619 102.464C174.239 97.6291 178.43 92.7401 182.191 87.7973C190.357 76.9448 195.246 68.0801 196.858 61.2032C197.503 58.5169 198.147 57.1738 198.792 57.1738ZM23.7541 225.281C23.7541 227.43 22.8945 229.311 21.1753 230.922C19.3486 232.534 16.9847 233.34 14.0835 233.34C11.1823 233.34 8.81837 232.803 6.9917 231.728V232.695C6.9917 243.011 14.3521 249.619 29.0729 252.52C33.5859 253.38 39.1196 253.809 45.6741 253.809C52.3361 253.809 59.9651 252.359 68.5612 249.458C77.1573 246.449 85.6997 241.99 94.1883 236.08C112.24 223.508 128.734 205.456 143.67 181.925C148.397 174.51 153.77 166.989 159.787 159.36L179.612 135.022C196.374 115.681 213.137 98.9723 229.899 84.8962C244.405 72.7542 253.646 66.6832 257.622 66.6832C259.126 66.6832 259.878 67.1667 259.878 68.1338C259.878 69.2083 258.374 70.7126 255.365 72.6467C252.356 74.5809 249.348 76.6224 246.339 78.7714C243.438 80.9205 240.644 83.2307 237.958 85.702C235.379 88.1734 232.8 90.9672 230.222 94.0832C227.643 97.0919 224.795 100.745 221.679 105.043C218.563 109.341 215.071 114.445 211.203 120.355L197.664 140.986C146.947 219.21 95.1554 258.322 42.2894 258.322C30.7921 258.322 21.1215 255.958 13.2776 251.231C4.78896 246.073 0.544634 239.465 0.544634 231.406C0.544634 227.108 1.78032 224.045 4.2517 222.219C7.90504 219.318 11.1286 217.867 13.9223 217.867C20.4768 217.867 23.7541 220.338 23.7541 225.281ZM310.971 112.296C309.467 113.693 307.748 114.821 305.813 115.681C303.879 116.433 301.677 116.809 299.205 116.809C296.734 116.809 294.585 115.896 292.758 114.069C291.039 112.135 290.179 109.986 290.179 107.622C290.179 105.258 290.609 103.163 291.469 101.336C292.328 99.5095 293.51 97.8978 295.015 96.5009C298.131 93.2774 301.515 91.6656 305.169 91.6656C308.929 91.6656 311.669 92.6864 313.389 94.7279C315.215 96.6621 316.129 98.8111 316.129 101.175C316.129 103.539 315.645 105.634 314.678 107.461C313.819 109.288 312.583 110.899 310.971 112.296ZM208.624 248.813C208.624 252.144 211.794 253.809 218.133 253.809C224.473 253.809 230.436 252.359 236.024 249.458C241.719 246.556 247.414 242.957 253.109 238.659C258.911 234.253 264.498 229.472 269.871 224.314L284.377 209.808C288.675 205.295 292.221 201.427 295.015 198.203C297.808 194.872 299.474 192.938 300.011 192.401L303.235 195.302C302.16 196.377 300.118 198.687 297.11 202.233C294.209 205.671 290.555 209.754 286.15 214.482C281.744 219.103 276.802 223.992 271.322 229.149C265.842 234.307 260.093 239.035 254.076 243.333C240.214 253.326 228.072 258.322 217.65 258.322C210.988 258.322 205.669 257.14 201.693 254.776C197.718 252.305 195.73 249.511 195.73 246.395C195.73 243.279 196.052 240.485 196.697 238.014C197.341 235.543 198.523 232.588 200.243 229.149C201.962 225.711 204.379 221.682 207.496 217.061C210.504 212.441 214.48 206.907 219.423 200.46C224.258 194.013 230.168 186.545 237.152 178.056L261.973 148.722C263.263 149.045 265.895 149.206 269.871 149.206H277.446C280.24 149.206 282.497 149.098 284.216 148.883C248.649 191.327 228.663 215.503 224.258 221.413C219.745 227.215 216.414 231.782 214.265 235.113C210.504 240.808 208.624 245.374 208.624 248.813ZM326.766 245.428C326.766 250.371 328.862 252.842 333.052 252.842C337.35 252.842 342.024 251.553 347.075 248.974C352.232 246.395 357.444 243.118 362.709 239.142C368.081 235.167 373.346 230.761 378.504 225.926L392.527 211.903C396.825 207.498 400.532 203.522 403.648 199.976L410.256 192.562L413.479 195.302C411.438 197.129 408.698 199.976 405.259 203.845L393.655 216.739C367.437 244.461 344.872 258.322 325.961 258.322C319.836 258.322 314.893 256.818 311.132 253.809C307.479 250.801 305.652 246.771 305.652 241.721C305.652 225.711 328.969 202.072 375.603 170.803C352.823 167.043 337.082 163.228 328.378 159.36C321.286 173.973 310.38 188.855 295.659 204.006C292.221 207.552 290.126 209.486 289.373 209.808C288.514 210.131 287.977 210.399 287.762 210.614C287.547 210.721 287.386 210.399 287.278 209.647C287.171 208.895 287.171 208.358 287.278 208.035C287.386 207.605 287.6 207.176 287.923 206.746C292.973 201.051 297.647 195.571 301.945 190.306C311.938 177.841 319.299 166.774 324.026 157.103C320.158 154.632 317.955 151.999 317.418 149.206C316.881 146.412 316.881 143.833 317.418 141.469C318.063 138.998 319.03 136.795 320.319 134.861C323.113 130.67 326.337 128.575 329.99 128.575C336.759 128.575 340.144 131.046 340.144 135.989C340.144 138.461 339.661 140.556 338.693 142.275L335.792 147.272C333.858 149.743 332.891 152.59 332.891 155.814C332.891 157.748 336.974 159.575 345.141 161.294C353.414 163.013 359.27 164.195 362.709 164.84C370.23 166.237 376.194 167.043 380.599 167.257C383.608 167.365 385.112 168.171 385.112 169.675C385.112 170.642 383.339 172.523 379.794 175.316C376.355 178.11 372.541 181.495 368.35 185.47C364.159 189.446 360.076 193.637 356.101 198.042C352.125 202.34 348.364 206.746 344.818 211.259C341.272 215.772 338.156 220.123 335.47 224.314C329.668 233.34 326.766 240.378 326.766 245.428ZM393.01 248.652C393.01 251.875 395.589 253.541 400.747 253.648C405.904 253.756 411.062 252.627 416.219 250.264C421.485 247.9 426.696 244.891 431.854 241.238C437.011 237.584 442.008 233.501 446.843 228.988C451.678 224.368 456.191 219.801 460.382 215.288C464.573 210.775 468.333 206.531 471.664 202.555L480.045 192.562L483.591 195.302L475.21 204.973C445.231 240.539 420.034 258.322 399.618 258.322C393.708 258.322 389.303 257.14 386.402 254.776C383.393 252.413 381.889 249.834 381.889 247.04C381.889 244.246 382.05 241.936 382.372 240.109C382.587 238.283 383.125 236.295 383.984 234.146C384.844 231.889 386.133 229.257 387.852 226.248C389.464 223.24 391.667 219.586 394.461 215.288L419.604 179.023L461.188 120.516H448.455C445.231 120.516 443.62 119.764 443.62 118.26C443.62 116.648 445.661 115.842 449.744 115.842H464.411L494.229 73.9361C501.751 75.1181 509.218 75.1181 516.633 73.9361L485.525 115.842H527.109C530.118 115.842 531.622 116.648 531.622 118.26C531.622 119.764 530.279 120.516 527.593 120.516H481.98L415.252 211.259C403.755 227.484 397.201 237.477 395.589 241.238C393.87 244.998 393.01 247.47 393.01 248.652ZM491.328 256.711C501.428 257.785 507.607 262.674 509.863 271.378C533.61 256.979 555.691 237.369 576.107 212.548L592.386 192.562L595.77 195.302L578.202 216.739C564.663 232.749 552.36 245.213 541.293 254.132C530.333 262.943 520.125 270.088 510.669 275.568C510.991 277.395 511.153 280.618 511.153 285.239C511.153 289.859 509.38 296.091 505.834 303.935C502.395 311.779 497.667 319.516 491.65 327.145C485.74 334.774 478.917 342.081 471.181 349.065C463.444 356.049 455.332 362.174 446.843 367.439C428.254 379.044 411.599 384.846 396.878 384.846C391.828 384.846 388.228 383.503 386.079 380.817C383.93 378.238 382.856 374.638 382.856 370.018C382.856 365.505 385.542 359.81 390.915 352.933C396.18 346.164 403.648 338.911 413.318 331.174C431.37 316.668 458.448 299.315 494.551 279.114C494.874 276.858 495.035 274.01 495.035 270.572C495.035 267.241 494.175 264.501 492.456 262.352C490.844 260.203 489.071 259.128 487.137 259.128H486.815C483.484 260.955 480.314 262.567 477.305 263.964C474.297 265.468 471.772 266.811 469.73 267.993C467.689 269.282 466.345 270.142 465.701 270.572C465.056 271.109 464.573 271.539 464.25 271.861C463.605 272.506 462.961 272.828 462.316 272.828C461.671 272.828 460.758 272.452 459.576 271.7C458.394 271.055 457.803 270.518 457.803 270.088C457.803 268.691 460.382 266.865 465.54 264.608C475.21 260.418 482.732 254.991 488.104 248.329C492.725 242.634 497.399 235.543 502.127 227.054L515.827 202.394C519.91 194.98 524.477 187.888 529.527 181.119C517.815 178.97 509.057 173.919 503.255 165.968C493.155 184.557 482.732 198.257 471.987 207.068C470.053 208.68 468.763 209.486 468.118 209.486C467.366 209.486 466.99 209.217 466.99 208.68L480.207 192.562C487.406 184.074 492.295 177.412 494.874 172.576L500.515 161.777C498.151 157.05 496.969 152.805 496.969 149.045C496.969 145.176 497.345 142.168 498.097 140.019C498.849 137.762 499.924 135.828 501.321 134.216C504.222 130.455 507.446 128.575 510.991 128.575C517.653 128.575 520.984 130.67 520.984 134.861C520.984 137.44 520.34 139.481 519.05 140.986C517.868 142.49 516.579 143.887 515.182 145.176C511.206 148.83 509.218 152.107 509.218 155.008C509.218 157.909 509.702 160.488 510.669 162.745C511.744 164.894 513.248 166.989 515.182 169.03C519.588 173.543 525.121 176.606 531.783 178.218C541.131 166.398 550.426 157.748 559.667 152.268C569.015 146.681 576.859 143.887 583.199 143.887C594.374 143.887 599.961 147.003 599.961 153.235C599.961 158.715 595.233 164.41 585.777 170.32C575.677 176.767 564.287 180.581 551.608 181.763C539.466 211.742 524.315 233.501 506.156 247.04C501.106 250.801 496.163 254.024 491.328 256.711ZM552.897 178.54C563.965 177.036 573.743 173.543 582.232 168.063C590.398 162.906 594.481 157.909 594.481 153.074C594.481 151.462 593.621 150.119 591.902 149.045C590.29 147.863 588.088 147.272 585.294 147.272C582.608 147.272 579.921 147.863 577.235 149.045C574.549 150.119 571.809 151.946 569.015 154.525C562.675 160.005 557.303 168.01 552.897 178.54ZM493.584 283.949L451.678 309.093C424.816 325.855 406.227 340.63 395.911 353.417C390.431 360.079 387.691 366.418 387.691 372.435C387.691 374.585 388.39 376.519 389.787 378.238C391.076 379.957 393.601 380.817 397.362 380.817C401.123 380.817 405.958 379.42 411.868 376.626C417.778 373.832 424.063 370.018 430.725 365.183C437.28 360.455 443.942 354.921 450.711 348.581C457.373 342.242 463.605 335.472 469.408 328.273C482.302 312.263 490.361 297.488 493.584 283.949ZM655.889 258.322C645.144 258.322 639.772 254.991 639.772 248.329C639.772 242.849 642.888 235.973 649.12 227.699L659.274 214.805L657.662 214.16C639.61 236.402 622.579 250.371 606.569 256.066C602.164 257.57 598.349 258.322 595.126 258.322C581.909 258.322 575.301 251.284 575.301 237.208C575.301 220.661 581.909 204.865 595.126 189.822C614.682 167.043 634.345 153.557 654.116 149.367C660.026 148.185 665.076 147.594 669.267 147.594C673.458 147.594 676.735 147.916 679.099 148.561C681.57 149.098 683.719 149.904 685.546 150.979C689.414 153.45 691.348 156.512 691.348 160.166C691.348 163.712 690.703 167.096 689.414 170.32L705.209 150.817C708.111 151.677 710.797 152.107 713.268 152.107C719.608 152.107 724.175 151.892 726.968 151.462L672.652 216.9C659.758 231.943 653.31 242.527 653.31 248.652C653.31 252.09 655.352 253.809 659.435 253.809C663.518 253.809 668.192 252.574 673.458 250.102C678.83 247.631 684.149 244.461 689.414 240.593C694.679 236.725 699.783 232.427 704.726 227.699C709.776 222.971 714.396 218.351 718.587 213.838C722.885 209.325 726.646 205.134 729.869 201.266L737.606 192.562L740.991 195.302L732.771 204.65C701.825 240.432 676.198 258.322 655.889 258.322ZM611.243 200.299C596.093 218.673 588.517 233.716 588.517 245.428C588.517 250.801 590.935 253.487 595.77 253.487C611.458 253.487 634.077 236.134 663.626 201.427L677.165 185.148C683.612 175.37 686.835 168.278 686.835 163.873C686.835 156.351 683.074 152.59 675.553 152.59C665.345 152.59 650.678 161.294 631.552 178.701C624.997 184.718 618.228 191.918 611.243 200.299ZM718.265 254.938C715.364 254.4 712.14 254.132 708.594 254.132C702.469 254.132 697.419 254.669 693.443 255.744L871.866 0.923074C879.065 1.99759 886.533 1.99759 894.27 0.923074L734.382 222.863L735.188 224.636C743.355 215.181 750.93 206.8 757.914 199.493L777.094 180.152C788.054 169.514 796.919 161.992 803.688 157.587C813.896 150.925 823.567 147.594 832.7 147.594C842.263 147.594 848.281 151.032 850.752 157.909C855.587 171.233 840.49 196.699 805.461 234.307L799.175 241.238C795.737 245.106 794.018 248.061 794.018 250.102C794.018 251.177 795.2 252.09 797.564 252.842C799.928 253.487 803.259 253.809 807.557 253.809C811.855 253.809 816.905 252.466 822.707 249.78C828.51 246.986 834.151 243.494 839.631 239.303C845.111 235.113 850.322 230.493 855.265 225.442C860.208 220.392 864.613 215.611 868.481 211.098C872.457 206.585 875.788 202.609 878.474 199.17C881.161 195.732 882.987 193.529 883.954 192.562L887.5 195.302C886.426 196.484 884.438 198.848 881.537 202.394C878.743 205.94 875.251 210.077 871.06 214.805C866.977 219.425 862.303 224.314 857.038 229.472C851.88 234.629 846.347 239.303 840.437 243.494C826.898 253.38 814.595 258.322 803.527 258.322C794.716 258.322 788.215 255.905 784.025 251.069C782.735 249.565 782.091 247.792 782.091 245.751C782.091 243.709 782.359 241.399 782.897 238.82C783.541 236.134 785.046 232.749 787.41 228.666C792.89 219.425 800.142 209.754 809.168 199.654C818.194 189.446 824.158 182.516 827.059 178.862C829.96 175.209 832.27 172.039 833.99 169.353C837.213 164.195 838.825 160.219 838.825 157.426C838.825 153.557 836.3 151.623 831.25 151.623C824.48 151.623 816.69 154.632 807.879 160.649C786.496 174.94 761.568 199.815 733.093 235.274L718.265 254.938Z" fill="#E62B71"/>
</svg>
